/* XPM */
static char *_bebef822f2b4537f59b14bc884abf534nrEQmau0jSgMOFI[] = {
/* columns rows colors chars-per-pixel */
"64 64 256 2 ",
"   c #47704C",
".  c white",
"X  c white",
"o  c white",
"O  c #F8F8F7",
"+  c #FEFEFF",
"@  c white",
"#  c #321D0A",
"$  c #3B2405",
"%  c white",
"&  c #210E04",
"*  c #3F2B10",
"=  c gray99",
"-  c #2D1B05",
";  c #110A06",
":  c #432B0F",
">  c #7F5B30",
",  c #61411B",
"<  c #9E834C",
"1  c #311B03",
"2  c #623A19",
"3  c #59270C",
"4  c #513413",
"5  c #4D3312",
"6  c None",
"7  c #40290D",
"8  c #4C3014",
"9  c #5D502B",
"0  c #7C501F",
"q  c #6F9412",
"w  c #AF9788",
"e  c #6F4620",
"r  c #432A0A",
"t  c #956533",
"y  c #674C25",
"u  c #71133C",
"i  c #8EB923",
"p  c #866C40",
"a  c #573916",
"s  c #8A764A",
"d  c #654D27",
"f  c #85A63E",
"g  c #592D1A",
"h  c #3B1D08",
"j  c #5D4218",
"k  c #5F7410",
"l  c #94B217",
"z  c #C69126",
"x  c #77675D",
"c  c #766136",
"v  c #64671B",
"b  c #726D35",
"n  c #611A2C",
"m  c #4D2F0E",
"M  c #768926",
"N  c #867455",
"B  c #FEC960",
"V  c #FFE775",
"C  c #FEE072",
"Z  c #FFCF60",
"A  c #FFE476",
"S  c #FDC660",
"D  c #FED565",
"F  c #EFA246",
"G  c #FED26F",
"H  c #ECA45A",
"J  c #E89C44",
"K  c #FABC5A",
"L  c #FDCC6D",
"P  c #FEDB6E",
"I  c #DF9545",
"U  c #E1994E",
"Y  c #F8B24D",
"T  c #FCBF5F",
"R  c #FFE87E",
"E  c #EEAB5F",
"W  c #DA873B",
"Q  c #D48237",
"!  c #C4772F",
"~  c #F7AD4D",
"^  c #73371E",
"/  c #D28941",
"(  c #F2A94C",
")  c #F7B558",
"_  c #F0B16A",
"`  c #FDC25E",
"'  c #F4C561",
"]  c #FEC456",
"[  c #C8AD73",
"{  c #E99E51",
"}  c #F3DA73",
"|  c #D1B86D",
" . c #FCC056",
".. c #588111",
"X. c #EBC569",
"o. c #F2B052",
"O. c #DB8F46",
"+. c #D27E33",
"@. c #E39242",
"#. c #B91915",
"$. c #F8C376",
"%. c #FDF7A7",
"&. c #EED270",
"*. c #DEB360",
"=. c #841948",
"-. c #854A1C",
";. c #7CC410",
":. c #B8773B",
">. c #B6712E",
",. c #C91115",
"<. c #AC2375",
"1. c #FBB851",
"2. c #D3B9C2",
"3. c #6C3013",
"4. c #D52832",
"5. c #632C14",
"6. c #5EA50E",
"7. c #C4894F",
"8. c #F6B96A",
"9. c #58600D",
"0. c #C03587",
"q. c #D29247",
"w. c #CB9153",
"e. c #EBB980",
"r. c #BD9658",
"t. c #992617",
"y. c #8B2015",
"u. c #BDA274",
"i. c #B16820",
"p. c #653F16",
"a. c #8B3836",
"s. c #7E3F1D",
"d. c #A03A56",
"f. c #AAE01F",
"g. c #5B3912",
"h. c #E6BC5E",
"j. c #6E8514",
"k. c #85CD17",
"l. c #BA7F4B",
"z. c #CF9E57",
"x. c #84A315",
"c. c #75AC13",
"v. c #CA823D",
"b. c #A87C3F",
"n. c #78B813",
"m. c #5B9613",
"M. c #724719",
"N. c #994E2F",
"B. c #784D3A",
"V. c #C56199",
"C. c #D9CBC4",
"Z. c #AD2517",
"A. c #D1AA5C",
"S. c #548C0C",
"D. c #6F7310",
"F. c #FED779",
"G. c #CA8BAB",
"H. c #C0A599",
"J. c #733A10",
"K. c #BBD716",
"L. c #6B5810",
"P. c #DB6441",
"I. c #E8B055",
"U. c #BEED1D",
"Y. c #A33C35",
"T. c #FDC97D",
"R. c #E0C877",
"E. c #FDD186",
"W. c #DEAA4A",
"Q. c #ECB950",
"!. c #885C2C",
"~. c #9D5E2B",
"^. c #A36932",
"/. c #791B0D",
"(. c #CD3929",
"). c #9A1F5D",
"_. c #FEEC8A",
"`. c #58430B",
"'. c #C0553E",
"]. c #DFBF6F",
"[. c #5B6E11",
"{. c #9B4517",
"}. c #BDAE86",
"|. c #A1D51D",
" X c #DE4E4C",
".X c #FABE6D",
"XX c #A47143",
"oX c #F5C78C",
"OX c #8E5628",
"+X c #AB0B0C",
"@X c #A55607",
"#X c #95140B",
"$X c #BA4530",
"%X c #8DBE14",
"&X c #A13229",
"*X c #50520A",
"=X c #CFA1B7",
"-X c #92C717",
";X c #B95D49",
":X c #BF2C22",
">X c #FFF193",
",X c #C5A369",
"<X c #BBA886",
"1X c #DFA351",
"2X c #B99E7B",
"3X c #B19766",
"4X c #B38B46",
"5X c #7E5925",
"6X c #7A2611",
"7X c #B7341C",
"8X c #C7B7AD",
"9X c #C1759A",
"0X c #955116",
"qX c #BEAC9F",
"wX c #66AC0D",
"eX c #654F12",
"rX c #B84078",
"tX c #B04F74",
"yX c #E8CB6A",
"uX c #FDE471",
"iX c #E4D894",
"pX c #CC4A17",
"aX c #A38767",
"sX c #8A3055",
"dX c #C75192",
"fX c #BD428B",
"gX c #E63733",
"hX c #A2CB16",
"jX c #A5766E",
"kX c #4F780A",
"lX c #A7CE43",
"zX c #EF8909",
"xX c #C7B473",
"cX c #F6E490",
"vX c #FED993",
"bX c #D4BC8D",
"nX c #D5F911",
"mX c #E39C93",
"MX c #EFE8E1",
"NX c #EDB11C",
"BX c #BB8592",
"VX c #BFF526",
"CX c #D5F275",
"ZX c #C2E018",
"AX c #F87B71",
"SX c #F9877F",
"DX c #E8973F",
"FX c #AF895E",
"GX c #FEFCF7",
"HX c #811621",
"JX c #EE6462",
"KX c #D9F523",
"LX c #F57163",
"PX c #F6EEA5",
"IX c #F7A10A",
"UX c #F46E5B",
/* pixels */
".                               .                             .                                                             .   ",
"  .                     @ .     . .                   . @     . .                     @ .     .                     . @     . . ",
"    .                 @ % o       . .                 X X       . .                 O % @       .                 . % O       . ",
"      .             + % O           . .           . X X @         . .             O % o           .             @ X X .         ",
"        .         @ % O               . .         X % .             . .         o % o               .         . % X             ",
"          .     . % O                   . .     O X .                 . .     + % +                   .       X O .             ",
"            . o + o                         + o + @                       . O + +                         o + + .               ",
"            O = =                         . = = +                         % = %                         o = =                   ",
"          . o = X                         . % %     ; & - # # # # - & ;   + % @                       . @ = %                   ",
"        + % +     .                     O O # $ : 8 4 a , y y y y , a 4 5 r 7 * # ;                 . % O     .                 ",
"      @ % O         .                 # 7 5 y p < r.A.*.h.X.X.h.Q.I.1Xz.4Xb.t > , 4 : * ;         @ X X .       .               ",
"    @ % O             .           1 j c < A.h. . .] Z D D Z Z B ]  .K Y ~ ( F I / l.t e 4 h -   . X X             .             ",
"  @ % O .               .     # r c ,XX.Q.o.1.1.W.W.W.W.o.Y Y Y ~ ( F J I q.q.I F J DXI l.> m h X O .               .         o ",
"  . O                       $ d 3X&.B Q.u.z.] ]  .Q.W.z.r.4X4Xb.b.b.< 4Xr.z.I.' L ' K o.F { 7.> 5 #                   .       o ",
"                        ; 7 s R.D Z D X.[ yXC &.&.P D Z B ' ' X.X.X.' `  . .B L ' ,X].B T o.F H XXg $                   .       ",
"                      ; : < } D G R.R.C C A &.}.| V V uXC P h.A.Q.] ] ] ] ]  . .K ,Xu.K S T Y F E 7.2 $                         ",
". .                   7 < &.G _.iX}.| A R >XiXbXcXV V A V uX| }.| D B B ] ] ]  .K I.I.K K T K F { e.w.2 $                   . . ",
"  . .               $ s &.T iXPX} ].} >X%.%.%._.R V uXV V V uX} C C P Z B S S K ,X2XW.` K K ( w.2X[ U 7.g 1         O O       . ",
"    . .           # c R.S R.}.[ } A >X%.iX}.&.V V } [ } V V V V R A C P Z B B ] A.A.K ` T ~ F w.w.I W O.XX5 &     O % +         ",
"      . .       ; j xX' L cXR.R.C A %.%.xXxXC V V | }.} V _._.R %.R C C P B ' S S B S ` K Y ~ ( F @.+.+.O.> h   O % .           ",
"        . .     $ s X.) F.cXA A A _.%.>XC C V A V } &.A V >X%.R R C | ].} [ u.*.Z B S ` 1.Y ~ ~ ( DXQ +.Q 7.a x X +             ",
"          .   ; 8 | 1Xu.X.F.P C A _.%.R A A A A V V V A A R R A A C | <XyX| *.' Z S  .1.) 1.1.~ ( F W +.+.W t 7                 ",
"            @ * s ].q.u.X.G Z D P C A C C A A R A C C A A A A A A C P yXP P G B  .1.Y 1XI.L L ) ( ~ @.l.v.W 7.4 &               ",
"            o 9 3XE J I.G G Z Z Z Z D D D C A &.D D D C } yXP C C C C C P G G ` 1.Y Y r.2X1X~ ( ~ Y { 2X7.{ O.e 1               ",
"          O   r 3XJ F ) B L *.' Z Z Z Z D C ].u.' Z Z B [ u.&.P P P P G ' h.' B S ` K ( z.E o.( U U F / / @.! > $               ",
"        X %   : < W J F ) h.<X*.Z B B Z G P | [ B Z Z S A.*.Z D h.h.G G [ <XA.G G L B K Y $.8.q.2Xr.{ @.W W >.> $               ",
"      X X .   * > w.Q +.J ~ r.*.B S S B B G G L B B B B B B Z G [ [ F.F.X.].G F.F.F.L ) W / W I U { U Q Q ! ~., #               ",
"  . O % @       8 > r.q.W J F Y 1.T ` ` ` B G G L S S S S L G G [ | L S B G L L G L K I Q @.O.+.{ { W Q ! -.g.7   . .         @ ",
"  @ X .         - d 6 p b.7.I J F Y ( o.) T S B L L S B B S T S S ` ) o.o.o.T T K ) J Q @.@.@.Q +.! i.-.g.6 8Xb &   . .       O ",
"                # y C.8XM.M.5Xt :./ I F F J F F ( ) K T K K ) o.o.o.o.) ) ( ( ( F J +.W O.Q :.^.-.^ 5.n =.H.GXw 1     . .       ",
"              # N B.jXMXH.OX@X@X-.M.0 !.^.>.:.v.q.I U J J J J J I I I I @.O.v.v.:.~.~.!.0 B.B.5.u u : 8 u H.GX6 $               ",
".           @ $ z ! =.9XC.C.3Xb.i.i.@X0X-.M.J.p.p.p.M.0 5X!.!.!.!.5X0 0 M.M.p.g.g.p.B.p 6 6 d.).=.u $ $ s MX2.2 *           .   ",
"  . .         & j >.{.).fXG.2.C.C.8X<X2X3XFXaXaXaXaXw H.qXqXw 6 sXu u n B.6 6 jXjXBX9XV.tXd.).=.HX#Xe w MX2.sXg -   + +     . . ",
"    . .     - 9 d D.i.i.d.<.0.V.G.G.G.=X2.2.2.2.2.2.=XG.9XdX0.<.<.=.B.^ a.a.d.d.tXtXrXtXd.a.^ B.jXH.C.2.V.).u h   + % O         ",
"      . .   9 f ..[.{.! z >.Y.d.rXrX0.0.V.dX0.fXV.V.0.<.<.).sX=.=.sX6 w qXqXH.w w H.H.H.qX8XC.C.8XBXtX).=.n 5 $ + % O           ",
"          & : i ;.[.Z.t.i.bXDX! @X{.{.a.a.a.a.a.a.N.N.{.0X@X@X6X=.<.<.<.9X=X=XG.BXG.=X=XG.9XV.dXrX<.=.HX/.[.m.k x O             ",
"        - b f f.U.i t.,.t.^.W.$.zXzXzXzX>.~.{.7X$XpXpXpXpX7XZ.#.#Xy.=.).<.0.fX0.0.0.dXV.fXrXd.d.Y.&Xt.#X/.j.k.l 9 ;             ",
"        9 i k.lXlXi J.#.4.7X:.Q.NXIXNX4XOXt.:X(.(.(.7XZ.#.#.,.,.,.#.y.6X&X&XY.&X&XY.Y.$X'.'.'.'.$X&XZ.+X/.m.n.|.i v ;           ",
"        * M f.CXCXU.j./.#.4.Y.z NXz ^.;XP. X X X4.4.4.,.,.,.+X+X#Xy.6XZ.(.P.P.P.P.P.P.P.;X;X;X;X$X(.4.+Xg.m.6.wXc.q *           ",
"        . v lXk.;.n.c.D.L.^ y.s.0XY. XAXSXJX XgX4.4.,.,.+X+X#X/./.y.t.Z.:X7X$X$X'.'.;Xl.mXmXmXAX X4.#.6XkX..q i x...9           ",
"          9 f n.c.l ZXKXU.n.kX9.p.s.{.N.'.Y.t.t.y.y./.6X0 D.9.3.y.t.,.4.gXgXgX XUXLXLXAXSXSXJX(.#.#Xs.j.m.6.%Xf.k k $           ",
"      O X # b M *X*XL.x.|.;.;.n.-XK.|.n.S...f c.S.[.q K.U.f.;.q p J.y.Z.#.#.#.#.:X(.:X:X:XZ.t.J.eX[.K.hX..wX;.%Xv * &           ",
"    o % O   & * 2 5.5.J.[.c.|.VXnXVXU.k.wXi f.k.f ..m.hXnXf.;.lXCX-X..9.*X`.g.J.3.J.0 L.9.kXj.S.|.hX-Xq ....q k *               ",
"  @ % +       & d FXJ.3 g.`.L.j.l k.c.6.;.j.9.6.m...9.*Xx.;.%XKXVXf.-XZXwXS.c.x.x.K.|.%Xn.;.f.K.U.%Xq S...M.OXm &   . .       O ",
"  . +         ; 5 [ z.-.3 3 ^ 3.eXn.[.eX..L.`.m.S.g.3.5.`.6.hXK.l c.k.nX|.wX-Xf.U.U.-Xx.%XZXk.;.q *XkXm.D.>.^.8       . .     @ ",
"                : < $.E w.B.5.5.p.L.p.s.-.N.-.eXL.s.N.N.^ eX5Xp.9.6.k.K.n.6.c.x.x.j.9.`.j.K.x.D.0X-.5Xp :.+.!.7                 ",
"                1 y *.E E _ r.^.-.s.^ 3.3.3.3.3.^ ^ ^ s.N.N.~.s.9.S.D.`.*XS.6.D.3 3 3 3 g.eX!.7.E U U I v.! , #                 ",
"  .               : < _ H ) T.T.$.oXe.,Xw.:.~.OXs.J.3 5.s.^ s.5.3 5.5.3.3 9.6.6.L.-.^.! ! w._ e.E H { W Q t r         .     . . ",
"    .             & 8 < *.H 8.$.E.vXvXvXE.$.8.8.e.e.z.l.:.>.XX:.XXl.w.O./ :.D.j.< e.e.E H H H H { U O./ XX4 -     . % O       . ",
"      .             - j p r.1XE 8.T.E.E.E.E.E.T.$.T.T.T..X.X$.oXoXoX8._ _ E O./ H _ E H H / O.I O./ v.t 5 #     . X % .         ",
"        .         . X O $ 4 > b.z.e.oXoX$.$.$.8.8..X.X.X_ E 8.8._ _ _ _ _ H I U { U U I / >.>.! :.t , : &     . X %             ",
"          .     . X O .   & $ 8 , > < u.bXe.H _ _ E E E w.7.H H H H H { I / Q / l.v.Q +.! i.OXe a : #         X X .             ",
"              + @ O .           # $ r 4 , e > XXb.l.7.w.q.U U U I O./ v.! ! >.^.~.OX0 e g 5 : * &         @ @ O .               ",
"            O = %                     ; - 1 9 : r 5 4 a , , e e e 2 2 2 2 , d 8 r 7 $ 1 -               + = =                   ",
"            o = %                           % %     ; & - # 1 1 * * * 1 # x = O                         @ = %                   ",
"        . % +     .                     O O     . .                   . X       .                   . X o     .                 ",
"      . X X .       .                 O % +       . .               + % O       . .               . X % .       .               ",
"    . % O             .             O % .           . .           + % O           . .             X X             .             ",
"  . X O .               .         O % +               . .       + % O               . .       . X X @               .         + ",
"  @ O                     .       O +                   . .     + O                   . .     . O .                   .       O ",
"                            .                             .                             .                               .       ",
"                                                                                                                                ",
". .                             .                             . .                             .                             .   ",
"  . .                   O +     . .                   @ O       .                     O @     . .                   o o       . "
};
