/* XPM */
static char *result[] = {
/* columns rows colors chars-per-pixel */
"64 64 104 2 ",
"   c #0C3730",
".  c #3D631E",
"X  c #3F691F",
"o  c #16402D",
"O  c #1B462F",
"+  c #1C482F",
"@  c #2E5426",
"#  c #2D572A",
"$  c #29592D",
"%  c #305525",
"&  c #365B22",
"*  c #315E2A",
"=  c #3E6320",
"-  c #3F6921",
";  c #33632A",
":  c #38652C",
">  c #3E6C2B",
",  c #41651F",
"<  c #42681F",
"1  c #426420",
"2  c #436A22",
"3  c #496D23",
"4  c #457224",
"5  c #4A7425",
"6  c #4C7A26",
"7  c #4B7728",
"8  c #4D7B29",
"9  c #517C25",
"0  c #507728",
"q  c #527C29",
"w  c #155F53",
"e  c #1B604A",
"r  c #176B5D",
"t  c #20775F",
"y  c #1A7666",
"u  c #1B7B6B",
"i  c #5D7C6D",
"p  c #4E8327",
"a  c #4D832A",
"s  c #548227",
"d  c #53842A",
"f  c #59852B",
"g  c #558B2B",
"h  c #5B8C2C",
"j  c #57942D",
"k  c #5C902D",
"l  c #598F31",
"z  c #5E9231",
"x  c #60922F",
"c  c #1D8372",
"v  c #1E8875",
"b  c #1E8B79",
"n  c #23917E",
"m  c #67827E",
"M  c #6C897A",
"N  c #209581",
"B  c #23A08B",
"V  c #28A791",
"C  c #26AD96",
"Z  c #27B098",
"A  c #29B199",
"S  c #29BCA3",
"D  c #35BAA3",
"F  c #7C948C",
"G  c #2AC1A7",
"H  c #35C3AB",
"J  c #39C4AD",
"K  c #2CCDB1",
"L  c #3EC9B1",
"P  c #30DBBD",
"I  c #3ADBBF",
"U  c #5CC9B7",
"Y  c #55CDB8",
"T  c #4DD6BE",
"R  c #3BE3C6",
"E  c #58DFC8",
"W  c #4CE0C7",
"Q  c #4AEDD1",
"!  c #79ECD8",
"~  c #6EF1DA",
"^  c #92A5A2",
"/  c #87E6D5",
"(  c #91E9DA",
")  c #8BF1DF",
"_  c #87F3E1",
"`  c #8CF4E2",
"'  c #94F4E4",
"]  c #9EF5E6",
"[  c #A2F6E7",
"{  c #A3F6E8",
"}  c #ABF7E9",
"|  c #B1F7EB",
" . c #B4F8EC",
".. c #BCF8EE",
"X. c #CED7D6",
"o. c #C5E4DE",
"O. c #C3E6E0",
"+. c #D3E5E2",
"@. c #C5FAF0",
"#. c #CBFAF2",
"$. c #D1FAF3",
"%. c #DBFCF6",
"&. c #ECFDFA",
"*. c white",
/* pixels */
"f f f f 4 5 5 4 s s g d 8 q 9 q 3 9 0 9 3 3 0 0 f h f g . . . . 4 4 4 4 g g d l d d d a 8 7 0 0 f h g h X X X X k k z k 3 3 3 3 ",
"f f f f 5 4 4 5 d s p s q q q 8 0 0 9 3 0 9 5 5 h h h h . . . . 4 4 4 4 d g g d d d g a 0 7 0 7 d g g g X X X X k k h z 3 3 3 3 ",
"d f f q 5 5 5 4 d s d d 0 q q q 3 9 0 0 0 0 5 0 h h g h X . , , 4 4 4 4 a l d g l d d d 0 7 7 7 g g h s - X X X k k z k 3 3 3 3 ",
"f f f f 4 5 4 5 s g s d q q q 0 0 0 0 9 5 5 5 5 s h h h . . , 1 4 4 7 4 l a l a d d d d 7 7 7 0 g h g h X X X X k k k k 3 3 3 3 ",
"7 5 4 p p p 8 d x h h x & = = = 0 3 3 3 s s s s p p 8 8 9 9 0 9 7 0 7 7 a l a g l f l f 5 5 5 3 x x x x . X - = 5 5 0 5 d s s s ",
"5 7 6 4 a a d d x h h x , = = = 3 3 0 3 s s f s 9 9 s 8 9 0 0 q 7 8 0 7 g a g g f f f l 5 5 5 5 x x x x X X = - 0 5 0 0 q s s s ",
"4 4 6 p a a q 8 x h x h 1 1 = & 3 0 5 5 s f f s p 6 p 8 0 0 0 9 9 5 8 8 a l a l f l f l 5 3 0 5 k x x x . X X = 5 0 5 0 s s s f ",
"6 6 6 > q d d d x h h f . & = 1 0 3 5 5 s s 9 9 6 p 6 p 0 0 0 9 7 9 7 7 d a l a l f l f 5 5 3 0 x x h x X . X X 3 0 0 5 f s q d ",
"5 5 5 5 2 2 2 2 s s a g g g g g 1 1 1 1 1 1 , , f l h h 3 5 3 5 h h h f q d q f d d d 8 q q q 0 k h h h h h x f , . & . 8 8 s q ",
"5 5 5 3 2 - 2 4 g s g p g g j p 1 1 1 1 , , , , l g h h 3 3 3 < f h h h d d f q d d 8 l 0 0 0 9 h x h x h x h x . . . . s q s q ",
"5 5 5 5 4 2 > 4 g p g j j g p j , 1 , , , 1 , , f l h h 4 3 3 3 f h h h q d q d a 8 d l 0 0 0 q k h h h h x h h . . . . d q 8 s ",
"5 4 4 5 > 4 4 - p g p p p p j p , , , < , , , , l f h h 5 3 3 3 f h h f f q d a l l 8 8 0 9 0 6 k k h x f x x x & . . & 8 q s 8 ",
"d g g d > a 6 > 5 5 4 5 p d d d 5 5 3 5 5 5 5 5 1 & 1 1 d a d a < < < < , , . . 2 7 0 3 l d g j g g g g q q q q x f x x < 2 2 1 ",
"g d d g 7 7 7 7 3 4 5 4 g a d d 5 5 9 3 5 5 5 3 1 1 1 1 a p a s < < < < . . . . 3 7 3 0 l d g g g p g g q 0 q q x x f x < 1 3 1 ",
"l d g g 7 7 7 7 4 5 4 5 d d d d 5 5 5 5 5 5 3 3 1 & & 1 p d p p < < < < . . . . 7 3 7 3 g g g g j p g g q q 9 9 f x x h 1 3 , 1 ",
"d g g d 7 7 7 7 5 4 7 7 d d d d 5 3 5 5 4 5 3 3 1 1 1 1 p s p p < < < < . . . . 3 7 3 0 g g g g p j p g q 9 9 0 x x h x 1 1 3 1 ",
"2 2 3 1 3 7 2 4 3 5 3 3 x h h h h h h s h h s s p j p p 4 p 6 4 k h x l s q f f z z z z 5 4 4 4 j g j g 4 3 4 5 k k l z 7 8 7 7 ",
"2 2 1 > 3 3 2 4 3 3 3 3 h h h g g f s h s h s g g g p j p X 4 6 z x h x f f q q z z z z 5 4 4 4 j g h g 3 4 3 4 z z z z 7 8 7 7 ",
"3 2 3 3 4 2 4 4 5 3 3 3 h h h h f h h h s g h g p g d g 4 4 4 4 h z l l q f q f z z z z 4 4 4 6 g j j g 4 3 5 4 z z z z 6 7 8 7 ",
"2 3 1 3 4 4 4 4 < 5 3 3 h h h j h h s h g g g s g p g s ; * ; & > > > > f q f q z k z z 4 5 4 5 h h g g 3 4 4 4 z z z z 8 7 6 7 ",
"9 s 9 9 3 5 5 3 . < , , 4 4 4 4 g j g p 6 6 4 4 1 = = = O               < < < < g a g a g h h s 6 6 6 4 s s s p 6 p 9 p 7 7 7 7 ",
"9 9 9 9 3 5 5 5 , , . , 4 4 4 4 g g g j 6 6 6 6 , & % @ i m m m F i m m % @ < < g g d g g g g j 4 4 6 4 s p p s 6 6 6 6 7 7 7 7 ",
"9 9 9 9 3 5 3 5 . , X < < 6 4 4 g g g g 6 4 4 6 . , o   X.*.*.*.*.*.*.*.    1 2 g a g a g g g g 5 5 5 5 p s p p p 6 p 6 7 7 7 7 ",
"9 9 9 9 5 3 5 5 , , X < < 4 4 4 g g a j 7 6 6 4 @ @ i m o.%.%.%.%.%.&.&.y y @ # a g d g j g g g 5 5 6 5 g p s g p 6 6 6 7 7 7 7 ",
"j j j j 6 6 > p 4 6 > p 2 X 1 X 7 0 0 0 s s s s O   X.*. .{ [ [ ] [ $.$.P P     p p p p < 4 < 4 2 2 2 2 a > 7 7 . , , , < < < < ",
"j j j j > 6 p - 6 6 4 6 - - - < 0 0 0 q q s > ; i m +.&.| [ [ [ @.@.] ] R R     p p p p 4 < < X 2 - 2 4 > 7 > > < < , , < < 2 1 ",
"j j j j > 6 > 7 6 6 7 7 - 2 = 2 0 0 0 0 s s O   X.*.%.$.} [ { { *.*.Q Q Q Q     s p a a < X 4 4 2 2 4 X 6 6 4 7 , , < , 2 1 < 1 ",
"j j j j 7 7 7 4 6 p > 6 2 - 2 2 0 0 0 0 q d O   X.*.#...#.#... .&.&._ _ Q Q c u $ ; p a < 4 < < 2 4 - - 6 > 4 > , < < < 2 1 2 2 ",
"5 5 4 6 p p a a - 4 3 5 9 9 q 8 1 1 . 1 h h O   X.*. .{ &.*.%.$.$.#.$.$.Q Q P P     4 3 q f s f 6 4 6 p g l g l 2 4 2 2 2 3 2 < ",
"6 5 6 5 p p a 8 4 4 5 3 9 6 8 q 1 1 1 1 4 : M F o.$.#.#.#.#. .|  . . . .H H R R     5 4 f s f s 7 6 6 4 l g l g 2 2 2 3 3 2 3 3 ",
"6 6 4 5 p a 8 a 5 4 3 4 6 0 q 0 1 1 1 1 +   X.*. .[ &.*.{ ` ` ` ` ` ` ` N N Q Q     3 5 s f s s 4 p 6 6 l g g l 2 2 4 2 3 3 < 3 ",
"6 4 5 5 a p a a 4 5 5 4 9 8 7 0 1 1 1 1 +   X.*. .[ %.&.[ ` ` ` ` ` ` ` N N Q Q c c @ @ f q s p p > 6 6 g g g g 4 4 2 2 < 3 3 3 ",
"= . . = 8 8 8 8 l g j g p g g s g h g g o   X.*. .[ #.$.' ` ` ` ` ` ` ` N N Q Q P P     l z z x g g g g , . , , f f h f 9 9 9 f ",
"= & = = 8 p 8 p g g g g g s g g h h g j O   X.*.#. .( / ) ` ` ` ` ` ` ` N N D D Z Z     z z z z g d g d , , . . h f f h 9 f 9 9 ",
". = X = q p 6 6 l l g j g s s g j g g h O   X.*.%.$.W K ! ` ` ` ` ` ` ` N N u u u u     z z z z g p p g , . , X f f h h f 9 f 9 ",
"= = = = 8 8 9 9 l g j j p g g s j g h h O   X.*.} ( W I Y U U U U U U U Z Z B B v v     z x k z g g g g , , . < h f f h 9 9 f 9 ",
"5 5 5 5 f h s h . . . . j g j g p g g p +   X.&.~ Q Q Q V N N N N N N N K K K K N N     1 1 1 1 = X < X s d g s 5 4 4 3 0 0 5 5 ",
"3 3 3 5 f f f f . . . . g g h h s s g p : * ^ ^ E Q J D A Z Z C C C C C V V K K r r $ $ 1 1 1 1 X - . X g g s g 4 3 5 5 0 0 5 0 ",
"3 0 0 3 s h f f . . . . g h g h p p p p h k O   L Q N u S K K K K K K K u u K K     a a 1 1 1 1 X X X , s g s s 3 4 5 3 5 5 5 0 ",
"3 3 0 3 f f f f . . . . g j k g j p p j h h +   D R n u S K K K K K K K u u C C     a a = 1 1 1 X . . . g s s g 4 7 5 3 5 0 5 5 ",
"f f g g 9 9 9 9 8 7 8 7 f g h g X X - - g h O   S P n u S K K K K K K K u u N N     4 4 l f h l d d d d = = = = 7 8 6 6 < 3 3 5 ",
"g g g h 9 s 9 9 8 7 8 8 g d d g X X - - g s > : t u v b S K K K K K K K b v w w @ @ 4 2 f f f f d d d d 1 = 1 = 8 8 p 6 3 3 5 < ",
"f s h s 9 9 f 9 8 8 6 6 f g g d X X X X h f f f O   c N G K K K K K K K n N     2 4 2 4 h h h f d d f d = = = 1 6 6 6 6 3 3 3 3 ",
"g h s h 9 9 9 9 8 8 9 6 g d d h X X X - f f f f : * e w y y y y y y y u w w ; ; 4 2 4 2 f h f h d d d d = 1 , . 8 8 p 6 3 3 3 3 ",
"X X X 4 3 2 2 - h k h k 9 p 9 p 1 = = 1 3 3 3 3 h f +                       . . 0 7 a 6 - . < < g g a a p 8 q p 9 9 9 5 0 0 0 5 ",
"4 4 X X 2 2 - - h k h h p p s s = = = = 3 3 3 3 h f 8 8 > - > > > > > > & & , = 8 7 7 8 X X < . d a a l 8 s p 8 9 5 9 9 0 0 0 0 ",
"X X 4 X - - - - h h h h s 6 9 s 1 . = 1 3 3 3 3 f h h f 6 6 6 6 7 8 8 7 = , . , 8 8 8 8 X , < < a a a l p 6 9 9 9 3 9 9 0 0 5 0 ",
"X 4 - 4 - - - - h k h h p s 9 9 . 1 1 1 3 3 3 3 h h f h 6 6 6 5 7 7 7 8 X . , , 8 8 8 8 X . , < g l a a 6 p 9 9 9 9 9 9 0 5 0 0 ",
"p 4 7 6 3 3 7 3 > : 2 - a a a a 8 8 6 8 s s s s f f q d X . . X 4 X X X 4 3 5 3 1 - 2 1 l d f g a a 8 q < 2 < < 1 . . . 5 s p p ",
"6 6 7 4 7 7 3 7 1 2 - 2 a a a g 8 8 8 8 s s s s s s q d . . . = 4 6 X 6 3 4 3 5 > - - - f g d g a 8 8 d < 2 2 < = . . . 0 s p p ",
"7 6 7 6 7 2 2 7 2 = 2 - a a a g p 8 6 6 s s f s d d d d = X = = X 4 X X 5 3 3 5 1 - 1 - d d g g q d d q < < - - = = 1 1 p p a a ",
"7 4 6 4 3 7 3 7 = 2 = 2 a a a a 6 8 8 p s s s s 8 d q d X = = ; X 4 4 < 5 4 3 3 - 1 - > d l s s q q a q 2 < 2 > . . . . p 8 p a ",
"g g h h f d d f . . . . g d d g h s s f g g g g 7 3 3 1 d d g g p p p 6 3 1 2 2 f f f f 9 5 9 9 7 7 6 5 g d g g 2 = - 1 6 7 9 0 ",
"k g g h d f f d , . . = g a d d s f f s j g g g 2 2 3 3 d l g g p p p 6 2 2 2 2 f f q f 9 0 9 5 4 6 6 4 p g g g 2 2 2 2 8 6 7 q ",
"h h h h f q d f . . = = d d d d g s p g a j g g 3 3 3 3 g g g d 6 9 6 6 2 2 1 3 f f l q 0 0 9 q 6 6 5 6 j g g g - 2 1 2 q 6 q 7 ",
"g h g h d f d d . , = : d d l d s s g a a j g g 3 3 2 3 g d g g 9 6 p 6 1 3 3 3 f f f f 9 9 9 q 6 4 6 5 g g g a = 2 2 1 0 0 9 0 ",
", , , , x h x x 1 2 2 2 3 3 3 2 < < < < 9 7 6 p l l l l k j j k s s 9 f 5 5 5 3 1 1 1 1 3 0 q q 4 4 X X g h g h g g a l l g g j ",
", , , , h x h h 2 2 2 2 3 2 2 3 < < < < 6 6 6 6 l l l z j k k k s s f 9 3 5 5 5 1 1 1 1 9 9 q q 4 X 4 6 h h h h g g l a g l l g ",
", , , , x h x h 2 1 2 2 3 4 2 3 < 1 2 2 6 8 6 6 l l k g g k k k s 9 s s 4 5 5 4 , , , , 9 q q q X 4 X X h h j g d a g l j g g j ",
", , , < h x x h 2 3 1 3 2 3 2 3 < , , 1 6 6 6 6 l l k k j h k k s s s s 5 5 4 5 , , , , 9 q x q 4 4 4 < h g s j g l l a l g l g ",
"9 x x x 9 5 9 5 4 7 7 3 3 1 3 3 j h z h l g g l 8 8 8 8 9 6 9 0 j g g j . . . . 5 9 3 3 s j p j p 4 p 4 6 p 6 p 5 5 5 5 > 4 4 7 ",
"h x h x 5 9 5 9 5 7 3 7 1 3 3 1 h j j l g l l l 8 8 7 a 5 9 7 6 g j j g . . . . 5 9 9 9 j j j j 4 p 4 p p 4 6 X 5 5 5 7 7 4 5 4 ",
"x x x x 9 5 7 6 5 4 3 0 3 1 1 3 l l l l l g l g > a a 7 6 6 6 9 j h j j . . . . 9 3 9 9 j j p j 6 6 p 4 4 p 6 6 5 9 5 5 4 7 5 4 ",
"x h x h 5 9 0 7 5 7 3 0 1 3 3 1 g j g l g l l j a 7 a 7 6 6 9 9 g j j p . . & . 3 9 < s s j j j 4 6 4 p 6 p 6 9 5 5 5 7 3 3 7 5 "
};
