/* XPM */
static char *result[] = {
/* columns rows colors chars-per-pixel */
"64 64 203 2 ",
"   c #2F0908",
".  c #320A0A",
"X  c #3C0D0D",
"o  c #2D1E0E",
"O  c #271C0D",
"+  c #341B0F",
"@  c #371B10",
"#  c #3A1F12",
"$  c #2F1E10",
"%  c #2E200E",
"&  c #31200F",
"*  c #342512",
"=  c #382713",
"-  c #362813",
";  c #3C2C15",
":  c #3D2D18",
">  c #333413",
",  c #3F311A",
"<  c #393916",
"1  c #2F2210",
"2  c #3E2C21",
"3  c #420E0E",
"4  c #490D0E",
"5  c #45100F",
"6  c #4D1111",
"7  c #4A1A11",
"8  c #541212",
"9  c #5B1514",
"0  c #4A0F10",
"q  c #631616",
"w  c #6C1516",
"e  c #661916",
"r  c #681916",
"t  c #731616",
"y  c #731818",
"u  c #7C1A1A",
"i  c #761718",
"p  c #432B15",
"a  c #442A17",
"s  c #443317",
"d  c #493017",
"f  c #42321A",
"g  c #4A3218",
"h  c #493B1D",
"j  c #453A19",
"k  c #54351B",
"l  c #543C1D",
"z  c #593B1F",
"x  c #6C361D",
"c  c #703C1F",
"v  c #4A3D21",
"b  c #573E20",
"n  c #583920",
"m  c #443734",
"M  c #753D21",
"N  c #793B21",
"B  c #3A4117",
"V  c #3C561C",
"C  c #3D631E",
"Z  c #3F691F",
"A  c #3E6421",
"S  c #3F6921",
"D  c #42481B",
"F  c #57401F",
"G  c #59441D",
"H  c #46521D",
"J  c #41651F",
"K  c #42681F",
"L  c #4A631F",
"P  c #4B4223",
"I  c #554221",
"U  c #5C4422",
"Y  c #4C5624",
"T  c #495639",
"R  c #4C4B30",
"E  c #644F29",
"W  c #634D27",
"Q  c #784424",
"!  c #64532A",
"~  c #69562D",
"^  c #67592D",
"/  c #695930",
"(  c #7F403E",
")  c #426420",
"_  c #436A22",
"`  c #496D23",
"'  c #4B6623",
"]  c #546424",
"[  c #546B25",
"{  c #596A28",
"}  c #447223",
"|  c #4B7425",
" . c #4C7A26",
".. c #4B7728",
"X. c #4C7B28",
"o. c #517C25",
"O. c #527C29",
"+. c #577526",
"@. c #587936",
"#. c #64692D",
"$. c #62742B",
"%. c #4D4C4A",
"&. c #4D5E41",
"*. c #504E50",
"=. c #535353",
"-. c #5B5B5B",
";. c #5A5554",
":. c #4F5051",
">. c #5A7841",
",. c #5F605E",
"<. c #60605F",
"1. c #607051",
"2. c #5F6060",
"3. c #656565",
"4. c #666768",
"5. c #696A69",
"6. c #707171",
"7. c #841C1C",
"8. c #8A1E1E",
"9. c #8D201F",
"0. c #92211E",
"q. c #8C1F20",
"w. c #8E2120",
"e. c #942221",
"r. c #9C2522",
"t. c #9C2927",
"y. c #A12722",
"u. c #A52923",
"i. c #AC2C25",
"p. c #AB2F29",
"a. c #A42E2C",
"s. c #B12E26",
"d. c #AF312C",
"f. c #B4322A",
"g. c #B9352D",
"h. c #BD3A33",
"j. c #B23530",
"k. c #C03D36",
"l. c #864524",
"z. c #C4443D",
"x. c #8B4C4D",
"c. c #86494A",
"v. c #8E5252",
"b. c #CD4B44",
"n. c #C54943",
"m. c #D4544E",
"M. c #4E8429",
"N. c #548427",
"B. c #53842B",
"V. c #59842B",
"C. c #548A2C",
"Z. c #5B8C2C",
"A. c #57942D",
"S. c #5B902D",
"D. c #598F31",
"F. c #5E9132",
"G. c #60922F",
"H. c #629338",
"J. c #678B4B",
"K. c #73885C",
"L. c #76955E",
"P. c #7A9763",
"I. c #86967B",
"U. c #83A268",
"Y. c #9C9C9C",
"T. c #969A95",
"R. c #919986",
"E. c #AF9C9B",
"W. c #96A28D",
"Q. c #A3AA9C",
"!. c #A6A9A2",
"~. c #ADACAD",
"^. c #A5A8A5",
"/. c #B6A7A7",
"(. c #AAB1A6",
"). c #B4B4B4",
"_. c #BAB7B9",
"`. c #BABABB",
"'. c #B8B7B8",
"]. c #B5B0B0",
"[. c #C3B3B4",
"{. c #C4C4C4",
"}. c #C5C4C8",
"|. c #CCCCCD",
" X c #C8C5C7",
".X c #D0CFCD",
"XX c #CED1D1",
"oX c #D4D3D3",
"OX c #DADADC",
"+X c #D7D9D9",
"@X c #D0D0D0",
"#X c #DCDFE0",
"$X c #E0DEE2",
"%X c #E4E4E4",
"&X c #EBEBEC",
"*X c #E6E6EA",
"=X c #F0EBEE",
"-X c #F1F2EF",
";X c #EDEEF1",
":X c #F4F3F3",
">X c #FDFBFD",
",X c #FBF3F5",
"<X c #F0EFF1",
/* pixels */
"V.V.V.V.| | } } B.B.B.B.X.O.O.o.| +.| o. .| | ..Z.V.Z.Z.C C C C S  .S ..C.M.C.C.B.B.B.B.....+...C.Z.C.N.Z Z Z Z S.S.F.S.` ` ` ` ",
"V.V.V.V.} | | } B.N.M.N.O.O.O.O.o.| | +.| | ..[ Z.Z.Z.C.C C C C X.S ....C.C.C.M.B.C.C.B.........Z.C.C.Z.Z Z Z Z S.S.Z.S.` ` ` ` ",
"V.V.V.V.| | } } B.N.B.B.O.O.X.O.| +.| | ..O.| ..Z.Z.Z.C.C C C C S X.} S C.C.C.C.B.B.B.B.........A.N.Z.C.Z Z S Z F.S.S.F.` ` ` ` ",
"B.V.V.V.| } | ..N.B.B.N.O.O.O.O.o.| +. .| | | ..N.Z.S.N.C C A A X.S } ..M.C.C.C.C.B.B.M.....{ ..Z.Z.N.Z.Z Z Z Z S.S.S.S.` ` ` ` ",
"| |  .Z C.M.O.B.G.Z.Z.G.V V A A [ | | [ B.B.N.B.M.M.X.o.O.o.O.+.........C.D.M.D.B.D.V.D.| ` | | S.G.Z.G.K Z S A +.| | +.B.O.N.N.",
"}  .M.S M.M.B.O.Z.G.S.S.A A V A | ` ` | N.N.B.N.X.o.X.M.+.| O.O.O...X.X.M.M.C.M.D.V.D.V.| | | | G.S.G.G.Z Z A S  .| ..| N.B.O.N.",
" .M. . .B.B.M.M.S.S.S.G.A V A A | | | | N.M.N.B.M. .O.O.o.| +.+.O.| ....B.C.C.C.V.D.V.D.| | ` | G.S.G.G.Z Z S S | | | ..N.N.N.N.",
" .S S M.M.B.B.O.S.S.Z.Z.A A A A [ | ` | B.B.N.N.X.M.M. .O.O.O.O.| O.....C.M.D.B.D.V.D.V.| | | ` G.G.G.G.C C Z C | +.+.| V.O.N.N.",
"....} .._ _ } S N.N.M.C.C.C.C.C.J H Z J J J J C D.V.Z.Z.` | ` ` V.Z.V.Z.B.@.B.O.B.B.B.B.O.O.o.O.A.S.G.Z.G.Z.Z.Z.A A C C S M.M.O.",
"` ..} } _ } S ..N.N.M.C.C.C.C.C.L J J J J J J J V.D.Z.Z.| ` ` K Z.Z.Z.Z.B.B.B.B.B.B.X.B.+.+.O.O.Z.Z.Z.Z.Z.G.Z.G.A V C C M.M.M.O.",
"..` } .._ _ S S C.C.M.C.A.M.C.M.J J J J J J J C D.D.Z.Z.` ` | | Z.Z.Z.Z.B.@.B.B.J.T.^.P.@.| O.O.A.Z.G.Z.Z.Z.Z.Z.A C C C B.O.O.O.",
"| ` ..@.S _ ..S C.M.M.C.M.A.M.A.L L J L J C J J D.V.Z.Z.K | K ` N.Z.Z.N.B.B.J.I.Y.^.~.^.R.K.@.+.A.Z.Z.Z.Z.G.G.D.C A V A X.O.O.M.",
"B.C.B.C...S M.S | | } | M.M.C.B.` | | o...} } | Y ) Y C B.M.B.M.L K J _ >.W.~.`.)._._.].~.^.T.L.N.A.C.C.O.O.O.O.Z.G.Z.Z._ ) ' ) ",
"C.C.C.B...X.X...| | | } C.M.B.B.+.| ` ` } | ..} C C A C X.M.M.O.K K >.W.}.+X&X%X*X%XOXOX X{._.~.Q.P.A.N.O.O.X.O.G.G.G.G._ _ ) _ ",
"C.C.C.B.S M.....} | | | B.B.B.B.| | | | ..| } ..V A C H M.N.M.M.@.R.~.{.OX;X>X>X>X:X:X&X=X*X+X.X{.`.(.P.O.O.+.+.Z.G.G.Z._ ) ' _ ",
"B.B.C.C.........| } } | B.B.B.B.| | ` | ..} | | ) ) C S B.N.[ x l.E.}.|.%X:X>X>X>X>X,X&X=X*X=X*XOXXX X`.^.P.N.+.G.Z.Z.Z.' J ' ) ",
"_ _ _ _ } } } } ` ` ` ` Z.Z.Z.A.C.N.Z.N.N.Z.N.Z.C.C.M.C.] N 9.u i t x.E.|.%X,X>X>X>X:X:X;X&X&X=X&X%X+XXX{.'.Q.K.H.S.G.F. .....| ",
"` ` _ ` } ` } ` | ` [ | Z.Z.Z.Z.N.Z.Z.Z.Z.N.N.N.C.B.+.l.r.r.9.9.8.u i w x./.+X&X,X:X:X:X;X;X;X&X&X&X&X%X.X{._.].Q.U.H.S. .X.| X.",
"' ' _ } } } } } ` ` ` ` Z.C.Z.Z.Z.Z.N.N.C.C.Z.N.{ N r.u.u.f.g.g.y.r.8.u i t c.].+X%X&X-X<X<X<X<X&X&X&X*X#X.X`.).~.~.(.U.....X. .",
"_ _ ` T } } _ } ` ` ` ` Z.A.Z.Z.Z.Z.Z.Z.N.Z.+.c u q.7.w.d.z.z.z.k.s.y.9.u u w w v.[.OX%X-X:X<X<X&X&X&X%X#XoX.X|.}.}.{.`.~.L...X.",
"o.o.o.N.| | | ` J J J J } } | } Z.Z.C.A.[ N 9.0.y.u.u.u.r.p.n.m.b.z.i.0.w.7.u t w w v.].+X$X&X$X*X$X%X%XOX+XXXXXoX|.|.{.).Y.1.| ",
"o.o.o.o.` | ` | C J J C } } } } B.Z.+.Q 0.0.y.i.g.k.g.s.i.r.e.a.n.m.n.p.r.e.w.7.u i w t v.E. XoXOXOXOXOXOX.X|.`.'._.).Y.5.=.&...",
"N.o.o.o.L | | | J Z J J | } K } +.Q 9.0.y.u.f.h.h.s.s.u.u.y.e.e.r.a.n.b.h.r.r.0.0.7.i t t w c./. XoXOXOXoX{.'.(.^.T.3.=.:.=.&.| ",
"o.o.o.N.| | ` | Z J J J } } ] x 9.9.r.u.f.h.g.f.s.s.u.y.r.w.e.e.e.e.9.a.j.h.f.y.r.r.e.8.u t w w c./..XoX.X`.].T.5.=.=.2.-.=.&...",
"A.A.A.A.S M...S M...S M.Y c 7.7.7.0.i.s.f.i.i.i.u.y.r.e.r.w.e.r.e.e.e.e.w.e.j.h.p.y.y.r.0.7.u t t w x./.`.Y.6.-.2.2.4.3.-.=.T _ ",
"A.A.A.A.....S M.X...[ Q 9.0.0.r.y.y.i.i.i.i.u.r.e.8.e.e.e.e.e.e.e.e.e.e.w.w.7.9.r.i.i.u.y.e.7.u i t t q ;.=.-.3.4.4.3.3.-.=.T S ",
"A.A.A.A...} |  .[ M w.w.r.y.u.s.i.i.i.i.u.r.e.w.w.w.e.e.r.e.e.e.e.e.e.e.w.w.8.u i 7.r.p.y.e.8.u i w 3   m ;.4.4.4.4.3.-.:.*.T J ",
"A.A.A.A.| } [ c 7.8.e.t.s.s.s.s.s.i.i.u.r.w.e.e.w.e.e.e.e.e.e.e.r.e.e.w.7.8.7.8.w.7.u 7.0.8.7.i 0 X X   m ;.2.4.4.2.=.%.R f B ) ",
"| | o. .+.M 9.9.e.e.i.i.s.f.s.s.i.i.r.r.e.w.e.e.e.e.e.e.e.e.e.e.e.e.8.7.8.7.q.w.q.7.u u u r 6 5 3 X X   m :.-.2.-.=.R f : , D _ ",
"| | L c 9.8.0.r.i.f.s.s.s.i.i.i.y.r.r.e.e.e.e.e.e.e.e.e.e.e.e.w.w.w.8.7.8.q.8.7.7.7.7.y 0 . X 5 0 X X . m :.:.;.R 2 : * : : D ` ",
" .G t 7.u 7.0.i.i.f.i.i.u.u.u.y.y.r.e.w.w.e.e.e.e.0.e.e.e.0.w.q.8.8.q.8.7.7.u 7.7.w 6 X X . 6 5 3 3 3 . m %.m : 2 - O O : h H _ ",
"} l 8 r u 7.9.0.u.i.s.s.g.s.y.r.r.0.0.e.e.e.e.e.e.w.0.w.q.w.7.8.8.8.q.u u u 7.t 6 X X X X . 6 3 X .     2 f f * $ $ * o : h Y _ ",
"C d 8 8 8 q u 7.e.r.u.g.g.i.u.e.w.e.e.e.e.e.e.w.w.q.q.7.7.q.q.7.8.7.u 7.u y 0 X X X X 3 X X 5 .   . @ : ; - % o = d d % ; h ] O.",
"C d 9 9 9 8 8 q u w.e.r.u.u.y.r.e.r.r.e.e.w.w.w.q.q.7.7.q.w.7.q.w.7.u t 8 X . X 3 X 3 X X       @ : ; - + o > p d d ; % ; j Y O.",
"C d 8 q 9 9 8 8 8 w 7.7.w.e.r.r.y.r.e.e.e.w.q.w.q.7.q.q.q.q.q.7.7.t 6 X X 3 3 X 5 X 3 .     @ : , ; * o > V K D ; p = % , P [ N.",
"J p 6 9 e q q 9 9 8 9 r u 7.0.0.t.y.u.r.e.0.e.w.e.e.w.7.q.7.7.i 6 X X X X 3 3 X X .   . @ : : - o % B  .J C Z Z N.H ; > ' O.O.N.",
"` g 3 4 9 w r q 9 9 9 9 q w u 7.w.w.e.u.r.e.e.e.w.7.7.7.7.i 8 X X X X X X X X .     @ - ; - + O > V C J N.N.C.N...` _ _  . . .| ",
"| #.U 7 3 4 9 r r e 9 9 8 8 9 w u 7.w.w.w.e.w.7.7.7.u w 6 X X X X X X 3 X .   . @ ; ; * o % > H C C Z Z C.N.N.C.} ` ....| | | | ",
"` #.~ U k 7 3 4 9 e e 9 8 9 8 9 9 w u 7.7.7.7.u 7.t 6 X X X X X X 3 X .     # : , - % O > V ) ) K Z Z C N.C.N.N.} } | ` | | | | ",
"[ #./ I l U k 7 3 4 9 q 9 9 9 8 9 8 8 w 7.7.u y 6 . X X X 3 5 5 X X     @ : , - % 1 < ` J J ) ) Z Z Z Z N.N.N.C.` ..} ` +.| | O.",
"C.#.~ z p d l U z 7 3 4 8 9 9 9 9 9 9 8 8 q 6 X X X X 3 5 5 5 X . . @ - ; - % o > J ` _ V.Z.V.D.B.B.B.B.A A A A ..X.M. .K | ` ` ",
"C.#.~ U d p p g z G k 7 4 4 8 9 9 9 q 9 9 8 X X X 5 5 5 5 X     @ : : - % % B } } K _ } Z.V.D.V.B.B.B.B.A A A ) X.X. . .| K ` ` ",
"N.#./ U p - = a p d l G k 7 4 3 6 9 8 9 9 0 . 3 3 6 3 X .   @ ; : - o % B } C.N.} } | _ Z.Z.Z.Z.B.B.B.B.A A A A  . . . .` ` ` ` ",
"Z.$./ I ; & & - = s p d k G k 7 3 3 8 9 9 8 X 3 3 X   . + ; ; * % o < | N.M.C.N._ } _ } V.Z.V.V.V.B.B.B.A ) J C X.X. .M.` ` ` ` ",
"K ] ^ F = & o o < Z.[ s * f l G k 7 3 0 9 8 X .     + ; f * $ o > S ....) J C J X.X. . .S Z K Z B.M.C.C.X.X.X.X.o.o.o.+.| +...O.",
"Z } K H ; + > V Z.Z.A.Z.L < p d F U k 7 3 3     + ; ; ; & % < ) X. ...X.) J C C ..X.X.X.C Z J K C.M.M.C.N.X.N.M.o.o.o.| O.| +.| ",
"} Z } Z A V C Z S.Z.Z.Z.O.M.L j p g l U n a # a : - & + > '  . .....X...C J J Z ..X.X.X.Z K Z K M.C.M.M.X.M.M.O.| o.o.o...+.| O.",
"Z } S S S S S Z Z.Z.Z.Z.N.o.X.N.V s a b E / v : * + B |  . .X. .X.....X.J C J H X.X.X.X.Z J J J M.M.D.M.X.N. . .o.o.| O...| +.| ",
" . .} | ..` ` ` A S S _ B.M.M.M.X.| s F ! ^ P : * < B.O.C C C C M.Z Z } } ` ` } _ A S _ C.C.V.C.M.M.X.M.K K _ _ C C C J M.M.M.M.",
" . .X.| ` ......_ S _ A M.B.M.M. . .s I W ^ P f * > B.B.C S Z C Z Z } Z } } | | S S _ S B.B.D.V.B.@.X.O._ _ K K C J ) V M.X.M.M.",
"} X.} X...` ` ..S A _ _ M.M.M.M.X. .g l W ! v f $ > B.O.C C A A Z Z } Z | | ` ` S _ ) S C.B.B.C.O.O.B.X._ _ _ S H C C C M.M.M.M.",
"X.| X.} } } ` ..S _ S S M.M.B.M.X. .s l E ^ v , 1 > B.B.C Z C A } } } } ` ` } | S A S ) B.D.Z.B.O.B.X.B.S _ _ S Z C C J M.M.X.M.",
"Z.C.Z.Z.B.B.V.V.A A A A C.B.D.M.Z.o.s l E / P f 1 > ` ` B.C.M.C.M.M. .o._ _ ' _ V.V.V.V. . .o. . .| |  .M.C.C.M._ S _ S  . .o.| ",
"Z.Z.C.Z.V.B.B.B.A A A A C.B.B.B.N.N.o.] E ! v B H _ _ ` C.B.C.C.M.M.M.o._ _ _ _ V.V.V.V. . . . . .|  .} C.C.C.C.S _ ) _ | o.O.O.",
"Z.Z.Z.Z.B.B.B.V.C C A A M.M.B.B.C.N.N.C.B.{ | C._ _ ` ` C.B.C.C.N. .o.o._ _ _ _ V.V.D.@. .o. . . . . . .C.C.C.C.) _ ) _ +.O. .O.",
"C.Z.C.Z.V.B.V.B.C A A S M.M.>.D.N.V.N.B.C.D.M.C._ ` ` ` C.C.C.C. . .N.} _ _ _ ' V.V.V.V.o.|  .O. .} }  .C.C.C.C.S _ _ ) ..| O. .",
"C C J J G.Z.Z.Z.) _ _ _ ' ` ` } K K K K  . . . .Z.F.D.D.S.S.S.S.N.N.N.V.` | | | H J J J +.B.O.B.Z } } Z Z.Z.S.Z.C.C.D.D.D.D.C.C.",
"Z H J J G.Z.G.G._ _ _ _ _ ` ` _ K K J L X. .M. .D.D.D.D.A.A.S.S.o.N.N.+.| | | } J J J J N.O.O.V.} } Z } N.S.N.S.C.C.M.D.C.C.C.A.",
"C J L J Z.G.G.G.) _ _ _ | _ ` _ K _ _ )  . . . .D.D.D.D.A.Z.S.S.N.N.N.N.| | ` | C J L J O.O.O.O.} } Z Z A.Z.A.N.C.C.C.M.A.C.D.C.",
"V J L L Z.Z.Z.Z._ _ _ _ _ _ | _ K J K S X. . . .D.D.Z.Z.A.A.S.Z.N.o.o.N.} } | } H J L J O.B.B.O.} } } K Z.Z.N.N.C.B.C.C.C.D.C.A.",
"S.S.S.G. . . .o.} ....| ` _ ' _ A.F.A.Z.C.D.C.D.X.X.X.X.O.o... .A.A.A.A.C C C C o.o.` ` N.A.N.A.M.} M.} M.} M.M.|  ...| S ..} ..",
"S.G.F.S.[ o.| o.| } | | ' ' _ ' D.A.Z.F.D.C.D.D.X.X.X.M.| o.O. .C.A.N.A.C C C C ` o.+.o.A.A.A.A.} M.M.M.} M.} M.| | | | X.....} ",
"S.F.S.G.| o.X.o.}  .| } ` _ ' _ C.C.A.D.D.C.D.D.M.X.X.X. .| | o.C.A.A.C.C C C C o.` ` o.A.N.A.N.M.} Z M. . . . .| ` ..` ....} ..",
"G.S.F.S.o.|  . .} | | | _ ) _ ' D.D.A.D.C.D.D.D.S X.X.X.o. .o. .A.A.A.M.C C C C ` o.o.o.A.A.A.N.} M.} M. .M. . . .| ..} ` _ ..` "
};
