/* XPM */
static char *_2cbbc521ea84a42e97f88d0a16373baUYHjKgHIEU2hR7vu[] = {
/* columns rows colors chars-per-pixel */
"64 64 256 2 ",
"   c #47704C",
".  c #3BEBF1",
"X  c #664F42",
"o  c #87C2C1",
"O  c None",
"+  c #7EBD91",
"@  c #53566D",
"#  c #258924",
"$  c #1D510F",
"%  c #8D4D3B",
"&  c #554A49",
"*  c #E87635",
"=  c #507D67",
"-  c #D96A2E",
";  c #388E2B",
":  c #735B51",
">  c #B0D673",
",  c #606C78",
"<  c #6A382A",
"1  c #4C7479",
"2  c #B66330",
"3  c #216D24",
"4  c #93593B",
"5  c #B75D39",
"6  c #BE8046",
"7  c #43655D",
"8  c #4F8A5A",
"9  c #8C3E23",
"0  c #787F8C",
"q  c #7184A1",
"w  c #B9582B",
"e  c #416B5B",
"r  c #91CB90",
"t  c #8BC265",
"y  c #75B339",
"u  c #AF5F37",
"i  c #214813",
"p  c #733324",
"a  c #79BC49",
"s  c #3B992C",
"d  c #52B072",
"f  c #728590",
"g  c #985E45",
"h  c #318E34",
"j  c #581F10",
"k  c #B34B27",
"l  c #9D522A",
"z  c #544C41",
"x  c #89CA8B",
"c  c #8BD3B3",
"v  c #87604F",
"b  c #5FA68E",
"n  c #48A040",
"m  c #8EAABA",
"M  c #87CC79",
"N  c #6C2E1F",
"B  c #7A5D4A",
"V  c #9ACCC9",
"C  c #A96444",
"Z  c #745043",
"A  c #AFD78A",
"S  c #4F9383",
"D  c #788DA8",
"F  c #95C86B",
"G  c #2A7B2B",
"H  c #1C4E15",
"J  c #2A7122",
"K  c #207316",
"L  c #5EAD36",
"P  c #449F2D",
"I  c #65B7B0",
"U  c #458C35",
"Y  c #6CB747",
"T  c #ABD373",
"R  c #A9D59F",
"E  c #9B6D57",
"W  c #2D4927",
"Q  c #93C678",
"!  c #AA6A3E",
"~  c #489C25",
"^  c #296118",
"/  c #203B0E",
"(  c #6A746D",
")  c #70B649",
"_  c #9F4121",
"`  c #35752A",
"'  c #4DAE5C",
"]  c #3D4D42",
"[  c #ADD15C",
"{  c #64B55E",
"}  c #515668",
"|  c #61AB36",
" . c #AED698",
".. c #9D695C",
"X. c #C3A488",
"o. c #C5A488",
"O. c #CAE3A0",
"+. c #AFD389",
"@. c #574D53",
"#. c #59667A",
"$. c #8F7853",
"%. c #994D34",
"&. c #D99648",
"*. c #627493",
"=. c #C87941",
"-. c #3E9D6B",
";. c #27240B",
":. c #C5E097",
">. c #BDD973",
",. c #7989A1",
"<. c #B2D787",
"1. c #CBE4B8",
"2. c #C0DEA3",
"3. c #AB5024",
"4. c #1A7232",
"5. c #99CC79",
"6. c #546D96",
"7. c #BD5E26",
"8. c #D77326",
"9. c #984921",
"0. c #51688C",
"q. c #F7C153",
"w. c #175C12",
"e. c #415579",
"r. c #4B6189",
"t. c #9F3719",
"y. c #607BA2",
"u. c #DD7C2B",
"i. c #C17127",
"p. c #CB812F",
"a. c #3D516C",
"s. c #923C1C",
"d. c #74BC50",
"f. c #DFA946",
"g. c #C15521",
"h. c #2D7B1C",
"j. c #872D15",
"k. c #475A80",
"l. c #236615",
"z. c #88351D",
"x. c #A7501E",
"c. c #B74D22",
"v. c #A8411E",
"b. c #B45A1E",
"n. c #E98735",
"m. c #BB8034",
"M. c #D15E29",
"N. c #F3B145",
"B. c #EF9A45",
"V. c #5C759F",
"C. c #F4B743",
"Z. c #EE9B34",
"A. c #2FA330",
"S. c #1F7019",
"D. c #2D3604",
"F. c #EA8D26",
"G. c #B3552A",
"H. c #F8CD67",
"J. c #68819F",
"K. c #C06A20",
"L. c #EDA536",
"P. c #43A830",
"I. c #41992D",
"U. c #587294",
"Y. c #F7C857",
"T. c #D5882E",
"R. c #DA8F34",
"E. c #DF822E",
"W. c #CC6622",
"Q. c #F0A547",
"!. c #B5461D",
"~. c #F0AC4C",
"^. c #7B98B5",
"/. c #A74823",
"(. c #F6BC4C",
"). c #5AA93A",
"_. c #F5B354",
"`. c #F8DE77",
"'. c #64B339",
"]. c #C1782B",
"[. c #ED923F",
"{. c #3C8A25",
"}. c #AC751F",
"|. c #314608",
" X c #854328",
".X c #772615",
"XX c #2F2804",
"oX c #4A5F7B",
"OX c #DD973F",
"+X c #F7D16D",
"@X c #F5AC33",
"#X c #8DC34C",
"$X c #CF9138",
"%X c #A8631F",
"&X c #F5C665",
"*X c #CD6F1E",
"=X c #6D8BA7",
"-X c #F3BD62",
";X c #B96518",
":X c #223405",
">X c #31590D",
",X c #1F470A",
"<X c #A25235",
"1X c #BA6936",
"2X c #E5903A",
"3X c #D99F34",
"4X c #0C4A0E",
"5X c #49B24B",
"6X c #57B856",
"7X c #35475E",
"8X c #56C2DC",
"9X c #EA9526",
"0X c #F9E38B",
"qX c #816958",
"wX c #7F787B",
"eX c #269928",
"rX c #163C08",
"tX c #9CCE72",
"yX c #755A50",
"uX c #402E09",
"iX c #EB7D2F",
"pX c #D9B25E",
"aX c #F6D773",
"sX c #9DCB56",
"dX c #687793",
"fX c #723E1A",
"gX c #604C47",
"hX c #9C957F",
"jX c #46A449",
"kX c #87847E",
"lX c #965823",
"zX c #F5CE5C",
"xX c #C89847",
"cX c #F7E36D",
"vX c #6FC469",
"bX c #566163",
"nX c #559BBD",
"mX c #57342A",
"MX c #5287B2",
"NX c #92CAD2",
"BX c #C2DE90",
"VX c #F8D65E",
"CX c #E4C363",
"ZX c #FAEF8E",
"AX c #69D5EB",
"SX c #322F37",
"DX c #838A98",
"FX c #F9DB83",
"GX c #AAE5E6",
"HX c #8B989F",
"JX c #BE8A57",
"KX c #A08043",
"LX c #A95711",
"PX c #75561B",
"IX c #79541F",
"UX c #685C44",
/* pixels */
"                                        . .     . . . . . c R R c . . . .   . . . . .                                           ",
"                                        . .       . . .   r  . .r   . .     . . . .                                             ",
"                                      . . .             1 ) tXBXA   .   V V   . .                                               ",
"                                        . .   x Q     . d L sX> R o .   2.1.  .                                                 ",
"                                              M A       n ).d.tX<.Q   Q >.O.c . .                                               ",
"                                        + +   t 5.o   7 P ).d.tXF =   t [ :.x     c +                                           ",
"                                        d I   n F { 8 8 ~ P.d.tXF J + a sX> Y     A O.x                                         ",
"                                  . .   d I   n d.y ' S s P.d.tXd.^ U y #X#X;   + T BXA                                         ",
"                                    r x b { c ; '.d.n e s A.6XvX'.l.~ '.#X#X` 7 Y [ BX+.1                                       ",
"                                  o M T d a ' ; ).d.P = h A.6XvX).l.I.'.#Xy ^ = a sX> T o                                       ",
"                                    M > T | ) ; I.d.s J # A.6XvXI.S.P.'.#X).$ ; y sX> +.                                        ",
"                                  . d F [ y | ; {.).G K # A.6XvXh.# P.'.d.I.$ s '.> > t                                         ",
"                                    + a #XsXL ; # jX3 w.S.eX5X6X3 eXP.5Xd.{.l.P.'.> sXt                                         ",
"                                  .   { '.#Xd.; G h 3 4Xl.# 5XjX3 eXA.5X6XS.# P.d.tX#Xt V                                       ",
"                                      d s ).d.P K h.3 4Xw.h.jXh S.eXA.5XjXh.eXP.d.d.).a M                                       ",
"                                  c   o ; {.).L 3 S.l.4Xw.S.I.3 S.# A.5Xh # A.P.6X{.h.y r                                       ",
"                                  I '   = G {.I.S.w.w.4Xw.l.# w.l.# A.jX# A.A.5XI.w.{.a +                                       ",
"                                  d -.U 7 4.S.h.h.4X4X4Xw.l.h.$ w.h.I.{.eXA.P.).l.S.'.t       . .                               ",
"                                    n G J z ^ l.h.w.rXrX$ w.l.,X$ S.h.h.I.I.P.{.w.I.| b   + +   . .                             ",
"                                    S ` w.W H $ l.l.,X:X,X>X>XrX,X>Xl.h.h.{.{.w.h.s Y 8 U ) x                                   ",
"                                  .   e i $ / rX,X>X>X:X:X|.|.:XD.|.>X>X>Xl.$ w.K J ] ` L M                                     ",
"                                  . .   e H $ ,XrXrX|.|.:XD.D.:XD.|.|.|.|.,X,Xi W H K ~ Y     . .                               ",
"                                  . . .   & X i / :X:XD.D.XXXXXXD.D.D.D.D.D.i i $ S.P d     . . . .                             ",
"                                  . .         & X ;.XXXXXXuXuXuXXXXXuXuXuXXX/ i H U 8       . . . . . .                         ",
"                                            7 < N j j p fX XlX XfXfX X9.fXs.9 B 4               . . . .                         ",
"                                          & < .Xj.t.j.x.].i.x.x.i.*X7.x.9.c.!.c.2 5 .           . .   o b I V                   ",
"                                      7 z N j.v.g.g.v.9.i.x.7.T.R.p.R.u.W.c.!.E.F.2 w l 1         1 D ,.q m D                   ",
"                                . .   X p j.v.9.1X* M.g.7.G.b.T.9X%X].9X8.g.8.E.F.*X- k :         & #.J.J.q =                   ",
"                              . . . . < j.t.g.7.W.- 8.iXiXn.8.7.*XF.F.8.8.F.Z.B.n.iXiXM.w         7 @., dXq e                   ",
"                              . .   = %.!.t.g.M.M.8.n.[.B.[.[.E.W.*X8.E.B.N.f.f.~.[.* M.- 6 .     1 @., dX*.&                   ",
"                              .   : g G.M.!.t.v.g.iXu.1XR._._.Z.u.u.8.R.H.`.f.JX-X_.B.W.u.2 X       W @ 6.f                     ",
"                              . o X  Xc.M./.p fXg.* u.%XOX_.B.u.n._._.p.$XY.+X+X&X~.2X8.- x._       X @ q e                     ",
"                                ( v v.!. X@ k.0.wX1X[.Q.Q.2X8.F.N.Y.H.q.p.p.~.-X-X[.E.n.n.M.k :     z } q S                     ",
"                              8 g <Xt.p @ 0.0.y.y.wXm.Q.n.- n.@X(.VX+XH.&XOXu.R.2XE.B.B.~.[.v._   . ] @ J.D                     ",
"                            . 4 %.s.j.gXk.U.8X8XMX^.kXi.M.iXL.(.Y.CXaXaX+XH.N.F.u.[._.+X0XxX1Xv D *.} @ =Xf                     ",
"                            e Z <Xj.z.@ 0.8XAXAXMX=X0 % b.9XC.zXf.m.CXZX0XaXC.9XF.T.-X0X0XxX=.qX@ @ @ } #.=                     ",
"                            : v 9.j.% 0.nXAX8X8XMXU.bXi.b.K.L.q.(.pXaX0XFXq.Z.~.(.Q.p.pXFX&XB.<Xp X ] z : 1                     ",
"                            + E 9.s.O V.nX8X8XnXU.oXO F.Z.i.K.L.q.+XFXaX&XL.Q.q.q.(.B.i.f.-XB.G.9 5       . .                   ",
"                            b v v.t.% U.6.nXMX6.a.gX1XZ.@XN.].;XZ.(.&Xq.L.Z.(.C.q.&X_.2XK.2Xu./.!.w   . . . .                   ",
"                            = O t.t.z.gXa.k.e.7XmXu 2X@X@X@XN.p.;XZ._.L.9X@XC.zX0X`.H.~.E.b.c.- * g &   . . .                   ",
"                            ( % t.t.t.z.mXSXSXmX%XOX3Xf.(.C.(.q.R.K.T.R.N.Y.`.ZXpXpX`.+X-XT.g.B.Q.! 5   . . .                   ",
"                          o X % c./.v..Xj j  Xm.f.f.%X].C.Y.+XH.~.8.K.i.N.H.0XZXpXpX`.FXH.OXg.u.B.* 5   . . .                   ",
"                            X  X9.G.x.z.j z.i.R.OX$Xm.OXC.q.q.@Xu.u.Z.T.].N.H.`.aXVXaXH.N.n.* 7.* * 5   . . .                   ",
"                          . X  X/.c.G.s..Xz.b.8.T.OXf.f.C.(.N.u.8.Z.N.q.$X].N.zXY.Y.q.N.n.n.n.- 7.- 4                           ",
"                            X <Xc.!.t.j.v.c./.7.E.R.OXf.C.@XE.W.F.@X(.Y.q.$XK.L.C.C.L.E.E.B.[.* g.M.w                           ",
"                          o < <X!.t..Xs.c.7.K.x.b.u.T.3Xf.OXb.W.F.Z.C.Y.Y.q.$X;X9X9X8.8.B.Q.~.[.M.c._                           ",
"                          8 N s.v.j.z./.7.i.K.K.9.9.].hXHXHXDXJXp.L.VXcXaXY.q.R.7.W.u.Q.-X&X$XQ.E.v.k &                         ",
"                          V Z .X.Xj.v.G.u 1X].p.i.O DX=XU.V.=X^.hXxXf.CXcXcXaXN.*X;XZ.-XFX&Xm.~.2X/.k l                         ",
"                          f yXz..X9 G.G.9.lXi.p.m.DXJ.oXk.r.r.V.^.hXlXxXcXcXzXL.*X;X8.Q.H.&X~.Q.u.!.w                           ",
"                          S B  X.X% u 7.9.9.m.p.$.y.oXk.6.V.V.r.J.m KXf.zXzX~.].R.3Xm.p.N.-X_.[.g.c.4                           ",
"                          . f % j.z.u 7.7.i.p.m.wXU.r.6.y.y.y.6.r.^.hXf.q.f.i.}.KXhXm wXp.L.Z.W.g.c.5                           ",
"                          . o.O z.t.s.b.7.i.p.}.=X6.6.V.V.y.V.V.r.y.kX3X3XK.%XqX0 ^.^.=X0 p.*Xg.M.k l                           ",
"                            r v s.v.t.s.b.K.i.! ^.U.6.6.oXy.y.y.r.y.0 m.K.%XqX, ^.NXNX=XJ.O !.M.g.C .                           ",
"                            X.Z  X/.c.t.s.G.b.yXy.6.V.0.y.J.^.y.6.0.dXlX;X}.UXdXm GXGX=XdX% 7.2X7.g c                           ",
"                            o B O /.x.7.x.s.z.yXU.e.0.6.e.e.y.J.r.6.dXlXT.%XgXU.NXGXNXJ.0 9./.n.=.6                             ",
"                              z .. X9.7.b.s.s.yX0.a.k.r.r.0.oXV.e.0.0 lX3X}.fXoX^.m ^.=XqX!.s.8.&.o                             ",
"                              & E O 9.G.x.z.x.qX0.k.k.6.k.e.0.6.e.U.kXm.}.m.PXgX0.6.J.wXG.M.v.1Xo.                              ",
"                              . C ..<X<X9.z.x.qXU.k.0.0.r.k.0.r.e.y.kX$X].}.}.IXgXyXO G.W.- g.2 X.                              ",
"                                4 % O <Xs.j./.qXU.e.e.e.e.e.a.0.a.U.wXm.3X%X}.}.}.b.b.8.W.W.1XC o                               ",
"                                c g  X% z.j.9.yXr.a.k.r.r.k.e.a.7XV.wXm.3Xp.%Xp.i.;X8.*Xb.u 2 6                                 ",
"                                1 B O p .Xj.s.mXoXa.oXr.r.e.e.a.7X6.kXxX$XT.LXx.;X*X7.9.! E 6                                   ",
"                                  : 4 < < < N Z dXoXoXk.a.a.e.7X7XJ.hXf.$XT.;X9 2 2 3.u C :                                     ",
"                                    1     1 & = q @ a.a.7Xa.7XSXe.J.$.&.6 6 w 4 l l 5 6 7   . .                                 ",
"                                            8 f 0 , , , bXbXbXa., , (   .               . . . .                                 "
};
