/* XPM */
static char *result[] = {
/* columns rows colors chars-per-pixel */
"64 64 29 1 ",
"  c #3D631E",
". c #3F691F",
"X c #3E6420",
"o c #3F6921",
"O c #41651F",
"+ c #42681F",
"@ c #426420",
"# c #436B22",
"$ c #496D23",
"% c #457224",
"& c #4A7425",
"* c #4C7A26",
"= c #4C7628",
"- c #4D7B29",
"; c #517C25",
": c #507728",
"> c #527C29",
", c #4E8327",
"< c #4D832A",
"1 c #538227",
"2 c #53842A",
"3 c #59862B",
"4 c #558B2B",
"5 c #5B8C2C",
"6 c #57942D",
"7 c #5C912D",
"8 c #5B8D31",
"9 c #5E9231",
"0 c #61942F",
/* pixels */
"3333%%&&1121->>>;$;:$;&:1555    %%%%242<28<2-==:3444....7797$$$$",
"333>%%&&11,4>->>::;$:$::5555    %%=%444422<2====4554....7756$$$$",
"3333&&&%4211>>>>;:$:::&&5515X OO%%%%4<442222====4555....9799$$$$",
"33>3%&%&1222>=>>$:;:&&&:5455  OO%%%%484<222<===:4413....5775$$$$",
"%&%%<<><5050   X$$::1113,*<*>:::=-==444<2828$&&&0050OOoo&&::1>31",
"%*,%<2220555    :$$$1111,*>*>::;-=-=4<8<8883&&&&0700..Xo::&&1211",
"**%*22--0580   X$:&&31;3*,*<::>;====<<<83438&&&&7505oooX&:&:1111",
"*%*%<222053> XXX&$&&,3;;,*1*>::;*:-=88<48383&&$:0000 o o&:&&33>2",
"=%=%##%o114<6444@@@@@@OO3885+&&&5555>3>3<222:>::57553055    %->>",
"$=%=###%23<<4444@@@@@@OO8835&&++5333223>>2<2>>:>77550550    =-2>",
"=$=#o#o%4<4<4<44@@OOOOOO3853$$$$3555>221<<2<:>>-75503055    >-->",
"%===#%oo<4<44444@OOOOOOO3855$&$$55552>2-8-8<:>:-67305500    11>1",
"228<--%-&%&&<<22&$;$=%$= @@ 1<<<++O+O   ==$:>844,444>>>>0030#@@@",
"2444%--%%&%%4<22;$$;%&=$XX@@<11<+O++    =#:$82444444>>>>3300##$@",
"8244%-=-&&%&2222&&&&&%$$@  @<<,,++++    ==$:44444,44>>::0055@$@@",
"42<4-%=&&%%=2222$&&&%&$@@@ @1,,,++++    $$=$44444444>>>:0308@@@$",
"##$@=##%:$$$55545355151544,4.,%*7579>3>39099#%*%6,45$%$%0999===-",
"##$@$$%%$$$$5565535151414,6,,.*%99753>3>9999%%%%6656%%%$9999=-==",
"$@$$#%%#$$&$555555554414,442.%**5979>3>39070%%%%5444&+%&9989---&",
"#$$@%%%%$&++75551515115444<2,%%%77553>3>9907%%%%4456%&+%9999=&--",
";;;;%==$O O.%%%%4444*%*%X  X<,<43333++O$444<4555**&&1,,4*,,*%==&",
";;;;$$$&OOOO%+%%4444**%*XX  <<<,3533++OO4<244644*%%*41,,****--==",
"1;;;&$&&O ++%%%%4444*%*%X  X4<,43883++#@424<5444&&%&,,11,%*,%===",
";;;;&&&$.O.++%%%4646%*%,XXX.,<,,3333++@#<4<44444%*&&,14,*,*,-===",
"6666<-o<---oo@#o=:::111155554141&&%%oooo,,,,#++%o==o<o<o..O+@@++",
"6666o--oo<-<#oo+:::>1;1;55551414%%%#oooo,,,,#++.oooo-<o<O.O+@##@",
"6666-o-%-o-o#oX#::::111156561115$%=%Xooo,,<<#%.%%oooo-<oO+O+#@+@",
"6666%-%%---<o#o#::::111155554111%%%=XXoo<1<<##%+#%oo%-ooOO++@@##",
"&&*%,,-<o%&+;;->@@XO555500005533#%%#223>%$&%3>31=--%4844%###$#$+",
"&&%*,,<<%=&&>>>-@@@@750500005135%##%>>>2&%%$33>3==--4448###%$$$$",
"*&**<<<<%%%+>::-@@X@555500001533#%%#;32>&$%%>322-<o<4446#$##$%+$",
"*%%&-<<-%&%&:-:>@@@@705700005533%###1>22&$%$3;24%o--8484###$+##$",
"  XX--**84446144564433310705====%%<o<o<<ooXo89994244O O 3353;3;;",
"  XX1-<,4566,4,1445511337509====%=o<<-o-XoXo99994424OOO 3355;;;3",
"X XX--**4865,444455433337059====%o-o%<<<oXoo9999444<O OO5333;;;3",
"XXXX<-;;4844441,46553;117798====%--o<%--oXoo99794<44OO O355333;;",
"#=$=3315XX  6545,,,,757514432348&***oooo<<<<@@O@.  O1114&%&$::&&",
"$$$$3333XX  5464,6,6575751338344**&&oooo<<<-@@@@....4141%%$&&&&:",
"$===3341    4564,,,,775543438888*&**o#%o<-<<X@@@ .. 4144$%$&:&&:",
"=$=$3513    64456,6,555534238>8>**-=##o%<<<-O@@@.+..1441&$&$&:&&",
"32411;;1----3324..oo43331*,,58005555,,4,%+%+83382222@XXX--**%%$$",
"33541;;;=-=-2443..oo3333*,*188>055554,6,%%%%33832222XXXX*-**$$$$",
"4511;3;;--**4244....3433,**1888355554431$$+%35512222X@X@***,$$$$",
"3453;;;;-->*4342...o33331*,;8530555514,1#%%+53552222XXo@*,**$$$$",
".%%.$#oo5555,1,1 @@ $$$$3553*****&==OO O*-%<o.++24<4,*1*&;;;:=::",
"....+#oo7575*,;,@@  $$$$5335%*=***-=OO @-**-. OO<48<*1,-;;&;:::&",
"%..%oooo5555111;@@OO$$$$3553-****&*-OO O*-<*++O.<<<<,*;;;;;;:::&",
"%..%oooo5555,,;&@@OO$$$$4435*-******O   -**-.O++88<<*1*;;&;::&::",
",%**#=$=XoX#<<4<-*-*2111122>XX o%...$&&&@o@o2224<-<-oO##    &,,,",
"&**%=$=##o#o<<<<-<--11133>22XX  ..,%$&+&o#oo4432-<<>##++    :1*<",
"****$=$=oX#o<<<<****11112>><XXoX%%..&&%+o##o4834>>>2##oo @@@,<<<",
"%%*%=%%%o#X#<4<<**,,11332222XXXX%.%+&$$$oXoo224322->##oo @  ,,,<",
"54542233XXXX4<8<11134444$$$@22<4,,,*$$@$88>8;;&*%-%*4444#o#@*::*",
"5555233>XXXX4<2233414444#$$$4444,,,*@@$@>>8>;&*;*&*&4444o@##-=::",
"55443333XXXX-82221<<4664#$$$4444**%,@$$$33>8::;;&*&&4444##@#::;*",
"48452>22 XXX<-8224444<44$$$$24<8;1**$@$:>>8>;;;;*%*&444<#o##*=>>",
" OOO5500@#@$$$$$@@@+****88685756113;&&$&@@@@$:>>....5555248<6446",
"@OOO0505####$###@##@****88886665111;&&$&@@@@;;3>%.,%545424<86848",
"  OO5005#$@##%%$#@oo****8856777711;3&%&&OOOO>>>>%...454544444646",
"@ OO0555#@$@$$$#@##o***,867776771111%&&&OOOO>>>3%%%.554644<46448",
">550&;&;%==$$@$@46646<68-<<<:*:=5666    $;$;6,6,,***.,,,&&&=o===",
"0080;&;&=$=$@$$$86888888-o<-**;*6,66    ;;;$6666,%****,.&&&=o-=o",
"0805:;:=%%==$$@$88688<88<-o<&;*;5666    ;$;&6166%,%,,**,&&=$#==%",
"0008;&*-%=$:@$@@64868668o--<;*;*64,,    $;$;66,6*%,%****&&=%=%=%"
};
