/* XPM */
static char *_41de0b6cd1249b8d1c35d3d2e1c817dDU77BrXE38e3biTV[] = {
/* columns rows colors chars-per-pixel */
"64 64 256 2 ",
"   c #47704C",
".  c #060609",
"X  c #03040B",
"o  c #08090F",
"O  c #07070C",
"+  c None",
"@  c #2E332E",
"#  c #54330B",
"$  c #0A0B0F",
"%  c #B5B32C",
"&  c #908E0C",
"*  c #0D0D0C",
"=  c #08090B",
"-  c #979799",
";  c #13120E",
":  c #45432B",
">  c #393625",
",  c #9F9C12",
"<  c #363608",
"1  c #62615D",
"2  c #7E7B27",
"3  c #C4BD2B",
"4  c #070203",
"5  c #181710",
"6  c #929008",
"7  c #8F8D09",
"8  c #A4A014",
"9  c #88812C",
"0  c #A19C37",
"q  c #3F2707",
"w  c #16160F",
"e  c #9A9614",
"r  c #9E9A16",
"t  c #B6B130",
"y  c #0C0B0B",
"u  c #39362C",
"i  c #333221",
"p  c #0E0C0A",
"a  c #99960F",
"s  c #C3BE33",
"d  c #8A880F",
"f  c #969033",
"g  c #A9A41A",
"h  c #504D1F",
"j  c #442A0A",
"k  c #4C2D06",
"l  c #4F4C4B",
"z  c #0E0B08",
"x  c #564E24",
"c  c #7A762D",
"v  c #858131",
"b  c #4D4C50",
"n  c #080708",
"m  c #9B9811",
"M  c #94910B",
"N  c #939009",
"B  c #2F2011",
"V  c #2A2924",
"C  c #261908",
"Z  c #8D8834",
"A  c #B9B424",
"S  c #A6A215",
"D  c #97940B",
"F  c #ADAA27",
"G  c #100B08",
"H  c #322008",
"J  c #090706",
"K  c #ADA923",
"L  c #726C30",
"P  c #292726",
"I  c #6C6767",
"U  c #686526",
"Y  c #727272",
"T  c #AAA72C",
"R  c #6A6728",
"E  c #5F5C25",
"W  c #A4A017",
"Q  c #C6AF37",
"!  c #5D5D5F",
"~  c #BE918C",
"^  c #615F14",
"/  c #FFF454",
"(  c white",
")  c #E8EA7C",
"_  c #EAEC7E",
"`  c #8B1D03",
"'  c #010001",
"]  c #9F5E06",
"[  c #9D5D06",
"{  c #FFF755",
"}  c #FEF353",
"|  c #F9EF50",
" . c #FFF555",
".. c #FCF152",
"X. c #FFF955",
"o. c #FFF554",
"O. c #F1E94C",
"+. c #929306",
"@. c #E8E14A",
"#. c #F6EC4E",
"$. c #D3D35D",
"%. c #B9B641",
"&. c #4B1408",
"*. c #100C09",
"=. c #D79322",
"-. c #EDE549",
";. c #C3CD33",
":. c #F8F9F9",
">. c #DDD44A",
",. c #C1BC42",
"<. c #ABA438",
"1. c #FCFCFD",
"2. c #CDCE54",
"3. c #8F5406",
"4. c #D8D964",
"5. c #6B1603",
"6. c #E7DF43",
"7. c #CEC745",
"8. c #D9D139",
"9. c #9F6B18",
"0. c #9E8760",
"q. c #F3F3F4",
"w. c #643E0C",
"e. c #704D16",
"r. c #F0BB4B",
"t. c #DCDCDD",
"y. c #855A16",
"u. c #DADD40",
"i. c #DEDF6D",
"p. c #D3CB45",
"a. c #E5E777",
"s. c #821A03",
"d. c #E4DA41",
"f. c #834E06",
"g. c #7D4B09",
"h. c #E2E372",
"j. c #E0D73D",
"k. c #CF8E21",
"l. c #D9D148",
"z. c #9B9638",
"x. c #A6711B",
"c. c #787129",
"v. c #5E1404",
"b. c gray81",
"n. c #FBE552",
"m. c #E7E97A",
"M. c #885006",
"N. c #B5C42C",
"B. c #686628",
"V. c #BBBBBC",
"C. c #C7C145",
"Z. c #985A06",
"A. c #E1D94B",
"S. c #791803",
"D. c #9F9D92",
"F. c #764607",
"G. c #787562",
"H. c #CCC535",
"J. c #99976D",
"K. c #6C440F",
"L. c #AE771D",
"P. c #7B797A",
"I. c #F8D352",
"U. c #5F5C2C",
"Y. c #AABE26",
"T. c #A1A11A",
"R. c #AEADA8",
"E. c #C8C94E",
"W. c #D1D63B",
"Q. c #83824B",
"!. c #C4C447",
"~. c #6F6C4F",
"^. c #5C3908",
"/. c #D3D4D4",
"(. c #956518",
"). c #F0482E",
"_. c #0095C8",
"`. c #9B9B56",
"'. c #B67C1D",
"]. c #71571F",
"[. c #F6DD4E",
"{. c #E5E6E7",
"}. c #A4A140",
"|. c #C8BF43",
" X c #8A8B8A",
".X c #96980D",
"XX c #A8BC25",
"oX c #6E919E",
"OX c #C2C4C5",
"+X c #CACAC8",
"@X c #FAA96E",
"#X c #0D799E",
"$X c #ECEE7E",
"%X c #277D9B",
"&X c #BB801E",
"*X c #FFFA56",
"=X c #363031",
"-X c #A1DFFD",
";X c #E6AB46",
":X c #ACA94E",
">X c #842A1E",
",X c #4F431A",
"<X c #98815C",
"1X c #EFEBD8",
"2X c #F0EFEF",
"3X c #93A6AF",
"4X c #033A4E",
"5X c #370F08",
"6X c #632F16",
"7X c #3A3A3A",
"8X c #A7A55D",
"9X c #44381C",
"0X c #99CED7",
"qX c #C3C367",
"wX c #1E1611",
"eX c #A7A79E",
"rX c #707071",
"tX c #915C4F",
"yX c #0B85AE",
"uX c #408198",
"iX c #642109",
"pX c #C2841E",
"aX c #88BAD1",
"sX c #ABB2B6",
"dX c #54261D",
"fX c #F7CA59",
"gX c #DCB944",
"hX c #12657A",
"jX c #F99E82",
"kX c #008CBB",
"lX c #B33524",
"zX c #C67E6C",
"xX c #76573F",
"cX c #CDA349",
"vX c #DF8E79",
"bX c #9BC3AD",
"nX c #D8D7A3",
"mX c #A68C36",
"MX c #6C443C",
"NX c #FFFB56",
"BX c #A0DEFB",
"VX c #B1B173",
"CX c #F4BA7A",
"ZX c #F4D4C7",
"AX c #C3C292",
"SX c #8B836A",
"DX c #C6671B",
"FX c #658592",
"GX c #014861",
"HX c #B27111",
"JX c #D0CD8A",
"KX c #C03A27",
"LX c #9D6756",
"PX c #AC6E5E",
"IX c #D05A20",
"UX c #03202C",
/* pixels */
"                                                                                                                                ",
"                                                                                                                                ",
"                M g g , W 8 A s F r r S % % K r m m 8 g t s A , N m 8 A 3 s g , N N D r 8 W &                                   ",
"            @ 7 e j.#.-.6.-.#...#.6.6.O...} #.6.j.j.d.#.| ..#.@.8.8.6.-.+ O.-.8.8.8.d.-.O.6.A 7                                 ",
"              , T.j. . . .| W.W.|  . .o./ / } 7...>.0 *X,.A. . .{ >.<.O.U.p.l.f  . . .} -.} @.8 <                               ",
"            & e 2.3 #. . .@.Y.Y.;.| / / / / o.f 0 }.U.:Xc.7.{ / o.@.B.`.G.J.Q.2 | o.o.O.N.6.#.S &                               ",
"            6 + m.$.H.|  .O.N.Y.Y.u./ / / o.O.`.D.b.t.+X- Q.>.o.} %.R.{.1.:.{.R.`.-. .| ;.u.O.S &                               ",
"            , 2._ ) $.p.} / W.Y.XX;.} / / | `.b.( ( ( ( ( t.J.7.7.R.( ( ( ( ( ( /.`.O.o.| ..| t 7                               ",
"          M s a.) ) ) 7.O. ...u.;.u./ / { C.R.( ( ( ( 2Xt.q.2XJ.Q.2X( ( :.t.{.( ( b.:X/ / /  .6., d                             ",
"        7 F h.) ) ) _ 2.6. ./ / ..} / / o.:X{.( ( ( /.uX%XuX+Xt. X:.( :.oX#X%X3X:.( eX>.X. ./ / 3 a                             ",
"        m 2._ ) m.h.) 4.H.} / / u.u.../ ..8Xq.( ( 1.FX_._._.%X/.R./.( OX#X_.yX#XV.( /.z.,.A.o. .d.r d                           ",
"      d g i._ h.%.T.,.h.2.8.../ W.Y.@. ...8Xq.( ( 2XuX_.UX4XkXoX+XeX( 3XkX4X*.#XoX2XD.2 0 c.l.{ -.e &                           ",
"      7 t m._ E.+.+.+.,.m.2.8./ -.N.W./ / 8X{.( ( q.uX_.*.' hXuXb.- ( 3XyX4X' GX%XG.+ ..NX+ 0 *XO.e &                           ",
"    @ m 4.) _ ,.+.+.+.T.i.) !.O. .#.| / { ,.OX( ( ( oX_.4X' GXyX+X- ( b.#X#X*.GXhX<.o./ { z.mXI.[.F &                           ",
"    6 s ) ) _ E.+.+.+..X$._ E.6. ./ / o.n.gXcXCXZX( /.%XkXGX#X%X+XrX2X1.oXkXyXhX}./ / { >.B.gXI.r.Q 6                           ",
"    a E._ ) ) i.T.+.+..X4._ 2.j. ./ / I.r.[.[.r.;X1X( V.%X_.yX3XV.z.D.2X2XFXhX}...o.{ >.B.+ [.n.fX;Xg &                         ",
"    6 %.m.) ) ) 2.T..X%.m._ 4.3 .. .I.r.r.n.I...fXZX( ( t.sXOXt.J.O.p.J.OXD.+ } { ..+ x mX@.|.[.n.r.3 a                         ",
"  @ d 8 !.a.) ) ) i.4.a.) ) ) E.8.} ;Xn./ #.Q |.gXD.t.:.1.:./.J.l. ./ ,.Z >.X.} p.2 c.7.n.,.B.7...r.j.,                         ",
"      & D + h.) ) ) ) ) ) ) ) a.!.j.;X| { >.B.f #.l.:XJ.J.J.:X@.o.o.O.l.| O.,.9 2 %...*Xp.,Xf n.r.I.6.8 @                       ",
"        < , E._ ) ) ) ) ) ) ) ) i.H.;Xr.n.#.l.9X].%.O.| O.| o.o./ / / o.l.<.<.p...NX-.z.j &.<.} n. .8.D   @           . . @     ",
"          6 % ) ) ) i.i.) ) ) ) ) 2.d.r.r.[. .f v.iXK.9 %.A.|  .{ { { { } o.*X..l.f ,X&.S.5.+ { o. .8.N = > : O o i E r v i     ",
"        < d r $.$X) % T.i.) ) ) _ $.-. .} / o.@.w.s.s.5.v.# e.c.z.<.+ %.+ }.9 L ~.=Xv.` ` iX|.{ /  .d.c - t.t.Y c 7.l.p.@.v .   ",
"            6 T 8XQ.B.2 E._ ) ) _ $.d. ./ / / { }.v.` ` ` s.S.v.=XD.-  XP &.=X+X:. Xv.` ` iXp.{ /  .O.qX1.( ( t.~.c : h >.F o   ",
"    . = i i = > 1 R.D.~.Q.$._ m.m.i.H.| / / / o.O.e.S.` ` ` ` s.9X2X( ( 1 5.dX{.( sX&.` ` 6XA. ./ / } 7.1X( ( 1.I O   ; ,.t O   ",
"    w Z |.,.<.2 ~.G.V.:.V.SX8X% K $.E.8./ / / / { %.iX` ` ` ` ` &.P.D.R.l 5.&.1 P.l &.` s.K.O.o./ /  .j.JX( 1.b.b .   $ T t O   ",
"  . R A.9 c Z <.|.<.D.( ( q.eXc.+.T.i.7.#.o./ / / ..c.5.` s.&.5Xv.5.v.&.&.S.s.5.5.5.s.` s.].../ / /  .O.+ eXY > O   o w 0 t O   ",
"  O e + y o ; P G.U.b.( ( ( t.B.+.+.!.4.@. ./ ../  .>.# S.5X' ' 5X` 5.4 4 &.` ` ` ` ` ` S.9 { / / } o.O.e ; o <   O h + >.7.: X ",
"  ; ,.Z $   X V V.b.q.q.t.sXG.2 +.+.% 4.d. .O.;.@./ { <.&.4 ' ' *.s.5.' ' 4 5.` ` ` ` ` 5.<.{ / -.;.u.@.,         w c.@.{ o.C.> ",
"  > l.U X     = u ! 1 1 ~.`.<.+.+.+.% $.8. .u.XX;.} o...c.' ' ' 4 v.&.' ' ' &.` ` ` ` ` 6X>. ...;.XX;.j.a         ; U.7.o./ #.L ",
". h A.h X <     < . ^ <.a.$X$..X+.+.%.i.H.} @.N.W./  . .@.,X' ' ' ' ' ' ' ' &.` ` ` ` S.].| o.| N.XX;.j.a         : ,.@.C.#.|.B.",
"X h @.2 R R w X     & r $._ a.% +..X$._ 2.d./ O.| O.u.#.{ l.9X' 4 *.4 ' *.wX&.5.s.` ` &.<.{ / } u.;.-.O.8 <       5 + + z.7.U.u ",
"; Z / ....A.9 5       6 t a.) h.!.2.m.) a.7.|  ...;.XX;...{ p.9XMXzXPXMXtXvXzXtXdXS.v.U.#.o./ / / }  ./ s 7       o : > h : 5 o ",
"U @.o.o.{ + c.> @     @ , 4.) ) _ ) ) ) _ $.-. .| N.Y.N.O.o.{ >.c.LXvXjXvXjXjXjXzXH x A.o./ / / / | -./ 3 6           @ . @     ",
"2 p.-.>.| C.x $         a 2._ ) ) _ ) ) _ $.-. .} ;.XXN.#./ /  .-.}.L xXtXtXtXxXx 9 @.n.../ / / / W.N.| t 7                     ",
"h x 0 z.z.%.: @         M ,._ ) 4.E.a.) _ 2.-. ./ O.;.u.} / / o.#.fXr.,.<.z.0 %.>.I.CXfX../ / / / @.u.} s 7                     ",
"o $ 5 > 5 i X           6 T h._ %..X$._ _ $.6.{  ./ | | }  . ./ #.[.r.@X@X@X@X@XjX@XI.}  . . ./ /  . . .d.a                     ",
"                        < D C._ !.+.2._ _ 4.3 6.j.p.C.% % 3 3 3 %.qXqX%.<.cXcX;XgX% % H.j.d.H.K % 8.O.#.H.M                     ",
"                          & g 4.h.!.i._ 4.+ `.VXnX1Xq.1XnXqXQ.x eX2X( +XB.].DXDXIX# G.AXVXQ.U.G.AX%.K % 2 *                     ",
"                            M % ) _ ) h.%.0XaXV.( ( ( ( ( ( q.V.rX1  XrXOX- >XlX>XP.V.P.rX- /.:.( :.1X1X- w   X X @             ",
"                            & S h._ a.qX0X-X0XsX:.:.:.:.:.:.:.1.q.+X- b.1.q.1 >XdXOX( {.2X( 1.1.1.1.1.( R.p ^ v v *             ",
"                            & e 4.$.%.bXBX-X0X1 <X<X0.0.0.0.0.<X<X0.0.0.<X~.6X).lXl 0.0.0.0.0.<XG.SX0.G.~.z.7.A.@.E             ",
"                            & e % :X0XBX-XaX~.K.pX'.y.y.y.y.y.9.pXy.K.K.w.j lX).).dX^.^.w.'.&XK.e.w.e.9 %.f E U |.u <           ",
"                            @ N 9 bX-X-XaXxX3.g.&X9.*.*.*.*.*.# pXj *.*.*.&.).).).>X*.*.wXx.e.y.(.].z.f ,Xn o u  Xu <           ",
"                              d V aX-X3X].F.# g.L.k.L.L.L.L.L.&Xk.&X'.&X&Xe.>X).KX6Xx.'.'.].y.&X,X0 B.9Xx.C o u 3Xb <           ",
"                                y oXoXe.^.*.H f.9.=.=.=.=.=.=.=.=.=.=.=.=.k.K.>X6XL.=.=.x.e.k.k.y.,X(.e.L.q $ u ~ > < @ O * o   ",
"                                5 7Xg.j 4 H 3.3.e.x.x.x.x.x.9.9.9.9.9.(.(.(.y.# e.(.(.y.e.pX=.k.k.L.9.j w.C O u V.:   ; n P z O ",
"                                * j 3.wX# Z.3.^.w.g.g.g.g.g.f.f.f.f.f.f.M.M.M.3.3.M.3.g.x.=.=.k.'.y.# # B $ . b b.: X n l P.' p ",
"                                $ q Z.M.[ f.^.f.] ] ] ] ] ] ] ] ] ] ] ] ] ] ] ] ] ] [ 9.k.k.x.e.# w.# p o   . Y OXi = 4 wX=X=Xz ",
"                                o C 3.[ F.w.3.] [ Z.Z.[ [ [ [ Z.[ [ [ [ [ [ [ [ [ [ [ ] HX9.F.M.3.# y X     X I 1 p y ' 7X- P.5 ",
"                                . z F.K.F.[ ] ] M.w.Z.[ [ ] M.M.] ] ] ] ] ] ] [ [ [ [ [ [ Z.[ 3.q 5 .       $ J ' ' 4 wX X- b o ",
"                                @ p H ^.F.F.F.K.j g.] [ [ [ # j ^.# # # k k k k k k q q q q q B ; @         y ' ' ' 4 1 - I $   ",
"                                  * y G G G y J w.] [ [ ] 3.V ; * * * * = = = = $ $ $ O O O O X             p ' ' ' 7X1 ! $     ",
"                                            X z g.] ] [ ] w.;                                               * J ' =XrXl $       ",
"                                      X o .   = C # f.Z.3.B o                                                 G 7X XP.> .       ",
"                                  @ w z n =   @ p U.H C B ;                                                   $ V b i .         ",
"                                  o n ' ' 5   $ L %.> X X @                                                     . .             ",
"                              . w z ' 7Xl 5 . u C.U o                                                                           ",
"                            . p 4 ' n I ~ * w }.0 ;                                                                             ",
"                            * 4 l P = b - V c C.: <                                                                             ",
"                            w ' P.B o : Q.9 l.R X                                                                               ",
"                            O n *.y @ i ,.@.v O                                                                                 ",
"                              O * X   X v c $                                                                                   ",
"                                                                                                                                ",
"                                                                                                                                "
};
