/* XPM */
static char *result[] = {
/* columns rows colors chars-per-pixel */
"64 64 218 2 ",
"   c #261A0B",
".  c #2A1C0C",
"X  c #2E200E",
"o  c #32220F",
"O  c #2E2110",
"+  c #312210",
"@  c #3B2814",
"#  c #383C17",
"$  c #2F361F",
"%  c #0E3F36",
"&  c #1A3526",
"*  c #3F3F3F",
"=  c #422C18",
"-  c #4C3A16",
";  c #483817",
":  c #513C17",
">  c #5F3A2C",
",  c #593826",
"<  c #4B3221",
"1  c #623C2D",
"2  c #3D551D",
"3  c #354E19",
"4  c #3E631E",
"5  c #3F691F",
"6  c #0E4137",
"7  c #164735",
"8  c #1A523F",
"9  c #325E2A",
"0  c #225333",
"q  c #3F5C39",
"w  c #25522D",
"e  c #3E6421",
"r  c #3F6921",
"t  c #3B662C",
"y  c #3E7C3E",
"u  c #306130",
"i  c #484719",
"p  c #5A441A",
"a  c #455B1E",
"s  c #664D1D",
"d  c #41641F",
"f  c #4B4D29",
"g  c #574627",
"h  c #424A3A",
"j  c #445D35",
"k  c #505826",
"l  c #6A4A2E",
"z  c #6A4331",
"x  c #754B32",
"c  c #7B4D34",
"v  c #784737",
"b  c #6A5D31",
"n  c #7D5236",
"m  c #79583A",
"M  c #755128",
"N  c #426520",
"B  c #4B6423",
"V  c #446A22",
"C  c #496D23",
"Z  c #46682B",
"A  c #457224",
"S  c #4A7425",
"D  c #4C7A25",
"F  c #4C7628",
"G  c #4C7B29",
"H  c #44782D",
"J  c #517C25",
"K  c #507728",
"L  c #527D29",
"P  c #587629",
"I  c #4B6D3F",
"U  c #507834",
"Y  c #776436",
"T  c #6B7933",
"R  c #757137",
"E  c #383459",
"W  c #312E52",
"Q  c #2A2462",
"!  c #2D256A",
"~  c #333465",
"^  c #373966",
"/  c #3E3B65",
"(  c #302872",
")  c #342C7C",
"_  c #333170",
"`  c #4A3A65",
"'  c #145A4C",
"]  c #1A5C4D",
"[  c #155D50",
"{  c #3D4145",
"}  c #196B57",
"|  c #214A7C",
" . c #006A6A",
".. c #096964",
"X. c #197A69",
"o. c #017372",
"O. c #007E7E",
"+. c #167975",
"@. c #0E7D6D",
"#. c #297669",
"$. c #31746B",
"%. c #4C4F48",
"&. c #745A43",
"*. c #695C46",
"=. c #527A43",
"-. c #597847",
";. c #596550",
":. c #65634F",
">. c #707050",
",. c #5B5173",
"<. c #437A6C",
"1. c #577771",
"2. c #6A6B6A",
"3. c #677869",
"4. c #686771",
"5. c #767363",
"6. c #85553A",
"7. c #89573C",
"8. c #8D593D",
"9. c #845538",
"0. c #915C3F",
"q. c #814B38",
"w. c #88633B",
"e. c #92623F",
"r. c #835B48",
"t. c #955F41",
"y. c #925F4B",
"u. c #876548",
"i. c #966143",
"p. c #996346",
"a. c #95664C",
"s. c #9A6549",
"d. c #9C694D",
"f. c #86635E",
"g. c #9C6D54",
"h. c #956B5A",
"j. c #8B7555",
"k. c #9B735D",
"l. c #9D775A",
"z. c #847B4A",
"x. c #A16B54",
"c. c #A4745B",
"v. c #A6765C",
"b. c #A16C4E",
"n. c #865D71",
"m. c #8B6B6B",
"M. c #A17761",
"N. c #A57A63",
"B. c #A97D65",
"V. c #AB7D6A",
"C. c #AC7C6D",
"Z. c #4D832A",
"A. c #538227",
"S. c #53842B",
"D. c #59852B",
"F. c #558B2C",
"G. c #5B8C2C",
"H. c #57942D",
"J. c #5C912D",
"K. c #538231",
"L. c #5B8E31",
"P. c #5C883A",
"I. c #5E9131",
"U. c #539034",
"Y. c #498B3A",
"T. c #61942F",
"R. c #688537",
"E. c #1C897A",
"W. c #27957F",
"Q. c #338775",
"!. c #26A075",
"~. c #389254",
"^. c #488D44",
"/. c #458D43",
"(. c #568043",
"). c #449349",
"_. c #509255",
"`. c #4D8779",
"'. c #6C8472",
"]. c #AE806A",
"[. c #B4836C",
"{. c #B78B74",
"}. c #3A368D",
"|. c #3D3794",
" X c #42379B",
".X c #463AA4",
"XX c #324995",
"oX c #057C83",
"OX c #246299",
"+X c #3255A1",
"@X c #236BA1",
"#X c #5D5981",
"$X c #53478F",
"%X c #615BA4",
"&X c #806A8B",
"*X c #028484",
"=X c #078686",
"-X c #17928D",
";X c #009696",
":X c #009C9C",
">X c #099797",
",X c #0F8A8D",
"<X c #229B86",
"1X c #25928B",
"2X c #28A694",
"3X c #2EA88C",
"4X c #108FA7",
"5X c #00A4A4",
"6X c #00ACAC",
"7X c #05AAA7",
"8X c #2ABDA4",
"9X c #11A894",
"0X c #4B968B",
"qX c #639184",
"wX c #9A818F",
"eX c #8B89BA",
"rX c #C3A698",
"tX c #CAB6AC",
/* pixels */
"D.D.D.D.A S A S A.A.A.S.G L L L K K S S S d t u 0 7 U J a 4 4 4 A A S A F.F.Z.F.S.S.S.F.F F F S D.F.G.F.5 5 5 5 H.J.I.G.C C C C ",
"D.D.D.L A A S S A.A.Z.F.J L L G J S S P e 7 6 7 [ X.[ # p a 4 5 A A A A S.F.Z.F.F.S.S.K.F D K S D.G.G.F.5 5 5 5 I.G.G.H.C C S C ",
"D.D.D.D.A S A S S.A.A.A.L K L L K K P S w [ 8X8X2X2X<X-.; 3 4 4 A A A A F.Z.F.F.S.S.S.S.D F K F G.F.F.F.5 5 r 5 H.J.I.I.C C C C ",
"D.L D.D.A S S A A.F.S.S.L L L K S K K S 7 ' E.[ % ] 3X3X#.w 9 4 A A A A Z.F.F.K.F.K.S.S.K S S K F.G.A.G.5 5 5 5 G.J.G.J.C C C C ",
"F S A Z.Z.Z.G S.T.G.J.J.2 e 2 e P C S B D.7 0 u Z i f Q.2XE.w K D K D D F.F.K.F.S.L.D.K.S A C S J.T.G.T.d 4 e r S P S P D.A.A.A.",
"D A A D A.Z.S.K.G.T.G.J.e 4 4 e C S C S A.S.S.A.a ; p $ X.<X' F D K S D F.F.K.F.L.D.F.L.S S S S T.J.T.T.5 5 r e K S S S A.A.A.A.",
"A D D A Z.Z.L L G.J.G.T.4 d 4 e S S S S A.A.A.J i s - & 6 W.' A K D F D Z.K.Z.F.F.L.D.G.S S S S T.G.T.G.5 5 5 r S S S S D.A.D.L ",
"D A H D A.A.S.Z.J.J.J.G.4 a d 9 S C S S A.F.D.d : : i 9 6 E.} Z K S G G F.F.F.F.G.K.L.K.S S S S J.T.T.T.5 5 4 e S K F F A.A.A.A.",
"A S S S A Z V Z A.A.Z.F.F.F.F.Z.d a e d d d d - : i a H 7 X.<Xw G.G.D.G.L D.L L K.K.Z.S.P J K P G.H.G.J.G.G.T.G.d 2 4 4 Z.G Z.J ",
"S S A S r r V r A.F.F.Z.F.F.F.H.B d N N d d i ; M = K K.7 } 3X9 D.G.D.G.D.K.K.D.Z.S.K.S.J K K L G.G.G.G.T.G.G.G.4 5 4 9 Z.D A.J ",
"S S S S V Z V V F.Z.F.F.F.F.Z.H.4 d N N e 4 i : - B D.L.V 7 7 C G.G.G.G.K.L S.S.K.K.Z.Z.J P P J H.G.T.G.G.R.G.J.4 4 2 e G A.G A.",
"S A S S A r V V Z.F.Z.Z.F.Z.H.Z.B N N N d a ; : i K G.G.C N d d P C C B a N B B V C C C C C K J H.G.G.G.G.G.J.G.4 4 4 4 A.L G A.",
"F.F.Z.F.D D D H S A S A Z.Z.S.S.S B g g g l p M # d d a # X X .     . . . X X O O .         d G.F.F.F.F.L L G L T.G.G.R.N N B V ",
"S.F.K.F.G A H D S S A A F.Z.S.S.S , z , x 7.n : a 2 N 4 # . . X o o X . X + X X . .       . d F.F.F.F.F.L G S.G G.J.T.G.N V N N ",
"F.K.F.F.D H D D S S S A S.S.S.S.B 1 > > 7.t.8.7.b B 2 N # . . O = = @ X X + X X . . .   . . d F.F.F.F.Z.L L J P G.G.G.T.d V V B ",
"F.F.F.Z.G A S S S A A S S.S.S.S.g , 1 > t.t.0.0.e.m B N # &.k.V.v.v.d.l O .     . . .     . d F.F.F.F.F.L J J P T.T.J.J.V B N N ",
"V V d C C A A V C C S C G.G.G.A.1 , > c i.8.0.i.t.t.w.T f h.{.{.[.{.[.7.; .     . . . .   . 2 A H.H.A.H.V A V A J.J.I.I.G F S G ",
"V B C C A C A A K d C C J.G.G.b 1 z > i.0.7.0.e.t.8.t.i.l.].].].N.[.v.b.x o o   . . . .   . 2 A A.H.H.F.S V S S J.J.I.I.G G D S ",
"Z C B Z A A 5 A S S C C G.G.G.T u.h.g.g.i.0.i.t.t.7.7.8.v.rX&XM.].n.&X{.&.@ p 1 =   . . . . 2 S A.H.A.H.A S A A T.I.I.I.G G G F ",
"C V V V 5 A A A d S C C G.G.G.F.R.z.l.M.c.p.0.0.t.t.8.6.v.tX%Xn.[.$XeXtXr.= 8.0.<       .   2 A G.H.A.H.V V A A I.I.J.T.F S D G ",
"J J J J S S C C 4 d d 4 A A A A F.F.R.].N.v.s.8.7.t.t.t.x.C.C.r.c h.C.g.9.c 0.9., .     .   d G.D A S S A.A.Z.F.D Z.Z.D F D S G ",
"J J A.J S S C S d 5 5 d V A A A F.F.F.R.j.B.N.g.t.t.t.t.t.x.h.v x y.d.8.9.9.8.8.l < =   . . d J.D A S S Z.A.A.A.D D D D H S S F ",
"J J J J C S S S d d 5 4 A A A A F.F.F.F.G R l.M.v.g.i.t.t.t.q.v v v 6.7.q.M 9.0.p.r., . . . C F.D A A S Z.A.A.Z.Z.D D Z.S F G F ",
"J J J A.S C S S d 4 d 5 A A A A F.F.F.F.G G U j.N.N.k.a.c v c 9.v v 9.7.c c 9.p.s.t.r.c c x P F.A D D S F.A.Z.F.A.D D D G F G F ",
"H.H.H.H.D A H A D D D A d V d 5 D K K K A.A.A.D._.3X2X1X$.j :.:.*.9.7.n x x m 5.3.`.0XQ.$.#.X.@.} V V V H S S H 4 4 d d A d A d ",
"H.H.H.H.A A D A D H G D r r A 5 D K K K J A.A.J G.^.9X6X5X>XoX,XE.7.p.n &.-X-X>X7X6X:X;XoXoXO.O.E.V V V A A H A d 5 d V d d d d ",
"H.H.H.H.H D A A G D A G r d r V K K K K A.A.A.A.G.J.U.!.7X7X7X5X>X<.t.&.<.5X5X:X6X6X6X5XO. . . ...5 V r S S A H d d d d d S A d ",
"H.H.H.H.A D H A H A D H V r V V K K K K A.J A.A.J.G.G.I.Y.Y.~.6X6X-X&.:.>X6X7X:X5X6X6X5XoXo. . .o.5 V V A H F A d d d d d d d d ",
"A A S A A.A.D Z.A A S C J J G K N N 9 d G.G.J.G.T.T.T.T.G.D.^.6X6X5X>X-X7X6X6X5X6X6X6X5X*Xo. . .E.H Z.A U.G.F.U.V C V A S d S d ",
"A D D A Z.A.Z.Z.C A C S D J K K N N N N J.J.G.J.T.T.T.T.D.G.^.6X6X6X:X:X6X6X6X:X6X6X6X6X*Xo. ...E.u r Z.F.F.F.F.A V V V d S d S ",
"D A D D Z.Z.Z.Z.S C A A D J L G N N N N G.G.T.G.T.T.T.T.D.D.^.7X6X6X:X:X6X6X5X=X5X6X6X5X*XO.....@.y Z.Z.F.U.F.F.V V C V d S S d ",
"A D D A Z.Z.D Z.S A C A J D F L N N e N G.G.G.G.T.T.T.T.D.D.^.:X5X6X6X:X6X5X5X=X0X0XqX'.>.&.&.r.u.J Z.r F.U.F.H.V V C S d A d S ",
"2 e 4 e G Z.J D F.H.F.F.F.F.A.F.F.H.G.G.D.D.D.A.J.T.J.J.F F y ;X:X6X6X:X6X:X;X$.B.B.B.B.a.r.t.t.t.T D.F.4 d d d D.D.G.D.P A.A.P ",
"e e e 4 G G G Z.F.H.F.H.A.A.F.F.F.F.F.G.A.A.D.D.J.G.T.T.F F y :X5X6X5X:X6X5X;X#.N.V.k.N.d.7.t.t.t.T F.F.d d d 4 D.G.D.D.A.A.A.A.",
"e e 4 4 G Z.J D F.U.F.F.F.F.A.A.F.H.G.F.D.D.D.A.J.T.J.J.K F y :X6X6X:X5X6X5X;X+.N.B.k.M.g.6.t.t.7.T F.S.4 d d d G.D.D.G.J D.J A.",
"e e 5 d G G A.J U.F.F.H.F.Z.A.H.F.G.G.J.P D.A.A.J.J.J.J.F F y :X6X6X:X6X6X5X>X+.h.N.k.N.g.6.t.t.7.R F.F.d d 4 5 D.G.G.D.L L J A.",
"A C S S D.D.D.D.5 4 4 4 F.H.F.A.A.Z.F.Z.J.G.J.J.D.A.G.F.F.U.^.:X6X6X:X6X6X6X;X+.5.N.N.B.x.t.t.t.8.b 5 5 A.A.F.A.A C C A K S S S ",
"A S C C A.G.D.D.4 4 4 4 H.F.G.H.A.F.F.Z.G.G.G.G.A.D.S.F.F.F.).6X6X6X:X5X6X6X:X=X5.M.B.B.c.t.t.t.0.n 5 5 F.A.A.F.F A S S K D S S ",
"Z F F C D.A.D.D.4 4 4 d G.F.G.F.Z.Z.Z.F.J.G.J.G.S.F.D.F.S.F.^.5X6X5X:X6X6X6X:XoX5.M.B.B.N.t.8.8.0.m d 5 A.A.F.A.Z A S C S K K S ",
"K F C F D.D.D.A.4 4 4 4 G.F.H.G.H.F.A.Z.J.D.J.J.D.D.D.S.G.K.^.>X:X:X6X6X6X6X;X=X3.N.B.V.v.t.8.0.t.8.d d F.F.A.F.A S C S S S K S ",
"D.D.G.G.A.J J J L G G F S.F.G.S.5 5 5 5 F.F.D.D.A.A.D Z.G.G.(.+X+X@X4X4X5X6X;X*X3.V.B.B.N.p.8.8.t.t.S.S.e N e 4 G G D Z.d S C C ",
"A.D.A.F.A.J J J D D G G F.D.S.F.5 5 5 5 Z.F.D.D.D Z.A.D G.G.-..X.X.X.X.XXX6X:XoX1.].M.].N.p.0.7.t.t.S.S.e e e e G G D D C C C C ",
"G.F.G.A.J J A.J G G D D S.S.G.S.5 5 5 5 D.D.D.G.A.D Z.G R.I.-..X.X.X.X.XXX4X;XoX1.M.k.B.B.s.0.8.t.t.D.S.e N 4 4 D D D D C C C C ",
"F.D.A.G.A.J J J G G G D F.F.S.F.5 5 5 5 D.D.D.D.D Z.G A.G.G.-..X.X.X.X.X.X}.,X| ,.h.k.V.k.s.t.0.t.t.S.S.e e 5 5 D Z.D Z.S C C C ",
"5 A A r d d d A G.H.G.G.D A.J Z.d d d d S S d S G.D.G.G.D D I .X.X.X.X.X.X.XOX) ` &.f.h.j.u.w.Y R T Z.K.D D A.D J J J J D K K K ",
"5 r 5 5 d A r 5 G.G.G.G.A.A.A.Z.a d d a d S S d D.G.D.D.G D I .X.X.X.X.X.X.X X) ! ! ~ / Z B d d K.F.F.Z.Z.A.Z.D J C J J K S K K ",
"5 A r A r r r r G.G.G.G.Z.A.J A.5 4 d d C S C C G.D.G.D.S D I .X.X.X.X.X.X.X.X) ! Q Q ~ N N N d U.Z.Z.U.Z.D A.D J J J J K S S K ",
"5 5 r A r r r r G.G.G.A.A.Z.Z.J d 4 d d C C C C D.G.D.G.D D I .X.X.X.X.X.X.X.X}.! Q Q ~ N N 5 d Z.F.Z.Z.D A.J J C J S J K K K K ",
"Z.D D A S A S S V e e V Z.Z.F.Z.D D D D A.A.A.D.L L S.S.4 4 q .X.X.X.X.X.X.X X) ( ! Q ~ K.K.K.F.Z.A.G A.d A d d d d d d Z.Z.Z.A.",
"Z.A D D Z S S A e V V r Z.Z.Z.Z.D Z.Z.D A.A.A.A.D.D.K.L 4 5 q .X.X.X.X.X.X.X.X) ( ! Q ~ K.F.D.F.J L A.L d A d A 4 d 2 4 Z.Z.Z.Z.",
"S D D A S S Z S Z r V r Z.Z.Z.Z.D D D A.A.A.D.A.S.K.Z.K.4 4 q .X.X.X.X.X.X.X.X) ( ! Q ~ K.L.F.K.L A.G A.d d d d d d 2 4 Z.Z.Z.Z.",
"A A D D A A S C r r e V Z.F.Z.Z.D Z.D A.A.A.A.A.G S.L S.5 4 q  X|. X.X.X.X.X.X) ( ! Q ~ K.S.D.S.G G A.L A d V d 4 4 d 5 Z.Z.Z.Z.",
"H.F.F.G.D.L D.K.4 5 4 4 F.Z.Z.S.A.A.A.A.F.F.F.F.C C V C F.F.=..X|.|..X X}. X X) ( ! Q ~ F D D D D D D A F.F.Y.F.V r V V D D J S ",
"G.D.G.G.S.K.S.D.4 d 4 e F.F.K.S.A.G.G.A.Z.F.U.F.C C C C F.S.=..X.X.X.X.X|.}. X) ( ! Q ^ F D J D D S A D F.F.F.F.e V N N S D J J ",
"F.F.G.F.D.L K.D.4 4 4 4 F.S.F.S.A.A.F.Z.H.U.F.F.C C C C F.F.=. X.X.X.X.X.X.X.X) ( ! Q ^ F J D D A D S D F.F.Z.F.V V V V J J D K ",
"G.G.G.G.D.D.S.D.4 d 4 e Z.S.K.S.A.F.A.F.Z.F.F.F.C V C V Z.F.=..X.X.X.X.X.X.X X) ( ! ! ^ F D D F D S D A F.F.F.F.V e N N D S K J ",
"d d d d G.T.G.T.N V V V V V C V d d d d A.D D D H.U.L.L.J.J.-..X.X.X.X.X.X.X.X}.( ( ( ~ K L L D.5 A 5 Z.G.G.G.G.F.F.F.Y.F.F.H.F.",
"d a d d T.T.G.G.V V V r C C C A d d S d D D D D L.L.L.L.J.J.=..X.X.X.X.X.X.X.X) ( ( ( ~ U L L D.A 5 5 5 A.G.F.G.F.F.F.K.F.H.H.F.",
"d d d d G.G.J.J.B V V Z A V V A d d V N D D D D L.L.L.L.J.H.P.#X.X.X.X.X.X.X X) ( ~ E E D.L D.L A 5 5 A G.G.H.A.Y.F.F.F.L.F.F.F.",
"d d a a G.T.G.G.V V B V d C C C C d d N D D D Z.U.L.H.H.G.G.P.2.2.4.#X$X.X.X.X) ! E h h L L L L 5 A 5 A G.F.H.A.S.F.F.F.H.F.H.L.",
"G.J.T.J.S J S J A A A S C B V V F.H.H.H.G.F.U.G.Z.G G G D J U 2.2.2.2.2.4.,.$X` ^ E h h A.H.A.H.Z.D D D 5 Z.Z.Z.S S S S A S Z S ",
"J.J.J.J.J S J S D D S D V C V B I.G.L.G.U.U.G.F.D G H Z.K G K -.3.2.2.2.2.2.4.%.< h * h H.H.H.H.D D D D A.A Z.5 S S D S A S S S ",
"J.I.J.J.J K J S A A S A C N C N I.H.G.G.G.F.U.U.Z.G G G D K G J J.L.-.2.2.4.4.%.W h 3 2 H.H.H.A.D A D D D Z.D D S D S S S A A S ",
"I.J.J.I.S J S J A D A S B C Z B F.G.H.G.U.L.F.F.G H G Z.F J D D F.G.G.D.Z ;.;.{ h Z C A H.A.H.H.D D D D D D A.D S S S S S F Z S "
};
