/* XPM */
static char *ab8bf57437ee43a88697cb1cc0776a23GSuadYKkKc2D7BCV[] = {
/* columns rows colors chars-per-pixel */
"64 64 192 2 ",
"   c #0074B1",
".  c #007CB5",
"X  c #007DBC",
"o  c #0B7FBB",
"O  c #007DC3",
"+  c #0084BD",
"@  c #018BBE",
"#  c #0E8CBE",
"$  c #0092BF",
"%  c #0084C3",
"&  c #0884C4",
"*  c #008CC4",
"=  c #0B8CC6",
"-  c #0085CA",
";  c #008CCB",
":  c #0A8ACC",
">  c #1286C1",
",  c #138EC9",
"<  c #0093C5",
"1  c #0991C4",
"2  c #0098C6",
"3  c #0093CC",
"4  c #0D93CC",
"5  c #009ACD",
"6  c #0A9ACD",
"7  c #1293CB",
"8  c #1994CF",
"9  c #139BCF",
"0  c #1E9ACD",
"q  c #018ED2",
"w  c #0B8FD1",
"e  c #0194D3",
"r  c #0A94D3",
"t  c #019BD4",
"y  c #0B9CD4",
"u  c #0495D9",
"i  c #0A96DB",
"p  c #029CDB",
"a  c #0C9CDC",
"s  c #1293D4",
"d  c #1C96D6",
"f  c #139BD4",
"g  c #199BD4",
"h  c #1596D8",
"j  c #1D97D8",
"k  c #139CDC",
"l  c #1C9DDC",
"z  c #249DD9",
"x  c #01A1CD",
"c  c #09A1CD",
"v  c #01A3D5",
"b  c #0BA3D4",
"n  c #02AAD5",
"m  c #0CACD5",
"M  c #01A3DB",
"N  c #0BA3DD",
"B  c #01ABDD",
"V  c #0CABDC",
"C  c #14A3D5",
"Z  c #1AA0D5",
"A  c #11A8D5",
"S  c #13A3DB",
"D  c #1AA3DD",
"F  c #13ACDD",
"G  c #1AABDE",
"H  c #01B1D6",
"J  c #01B2DF",
"K  c #0AB1DC",
"L  c #0D97E0",
"P  c #059EE1",
"I  c #0C9CE2",
"U  c #129EE3",
"Y  c #02A5E2",
"T  c #0CA4E3",
"R  c #02ABE3",
"E  c #0BABE4",
"W  c #0BA6EA",
"Q  c #04ACEA",
"!  c #0CACEB",
"~  c #13A4E3",
"^  c #1BA4E3",
"/  c #13ABE4",
"(  c #1AABE4",
")  c #14A5EA",
"_  c #1BA3E9",
"`  c #14ACEB",
"'  c #1AADEB",
"]  c #03B3E4",
"[  c #0BB2E6",
"{  c #00B8E6",
"}  c #04B4EA",
"|  c #0CB4EB",
" . c #03BAEB",
".. c #0CBBEC",
"X. c #14B3E5",
"o. c #1BB3E4",
"O. c #14B9E6",
"+. c #1ABCE4",
"@. c #14B3EB",
"#. c #1BB4EC",
"$. c #14BBED",
"%. c #1BBAED",
"&. c #0EADF3",
"*. c #0DADF1",
"=. c #15AEF1",
"-. c #15AEF2",
";. c #15AFF5",
":. c #16AFF2",
">. c #18ADF1",
",. c #1AADF0",
"<. c #19AEF0",
"1. c #1CADF0",
"2. c #1AAEF2",
"3. c #0CB2F0",
"4. c #0DB4F2",
"5. c #03BDF1",
"6. c #0FBDF0",
"7. c #0CBBF3",
"8. c #10B6F0",
"9. c #12B4F2",
"0. c #17B5F2",
"q. c #17B7F3",
"w. c #11B0F4",
"e. c #16B1F4",
"r. c #17B7F5",
"t. c #15B7F7",
"y. c #14B4F3",
"u. c #18B4F1",
"i. c #19B5F0",
"p. c #1BB5F1",
"a. c #1AB6F1",
"s. c #1BB7F2",
"d. c #1FB5F2",
"f. c #1DB7F3",
"g. c #1AB3F6",
"h. c #1AB4F4",
"j. c #1CB6F4",
"k. c #1BB4F3",
"l. c #13B8F0",
"z. c #15BAF4",
"x. c #15BBF5",
"c. c #17B9F7",
"v. c #14BBF4",
"b. c #1AB9F1",
"n. c #18B8F2",
"m. c #1DB9F2",
"M. c #1CBBF3",
"N. c #1BB9F6",
"B. c #1DB9F4",
"V. c #1BBBF3",
"C. c #14B6F8",
"Z. c #1CB5F9",
"A. c #1AB6F9",
"S. c #15BAF9",
"D. c #1ABAF8",
"F. c #1BBDFD",
"G. c #1ABBFA",
"H. c #25A5E4",
"J. c #2EA6E3",
"K. c #22A8E7",
"L. c #24ACE3",
"P. c #2DA9E7",
"I. c #23B3E5",
"U. c #20B3E9",
"Y. c #21B0EC",
"T. c #20B7EE",
"R. c #23B3EC",
"E. c #2AB4EC",
"W. c #23B9ED",
"Q. c #2ABBEA",
"!. c #31B9ED",
"~. c #38BBEF",
"^. c #22B6F2",
"/. c #26B6F2",
"(. c #22B4F2",
"). c #28B2F0",
"_. c #27B9F5",
"`. c #22BBF3",
"'. c #2DB8F1",
"]. c #22BDF9",
"[. c #0DC0EB",
"{. c #0BC0EF",
"}. c #15C0EE",
"|. c #1AC0EA",
" X c #0CC1F2",
".X c #13C1F3",
"XX c #19C1F2",
"oX c #1CC1F5",
"OX c #15C0F9",
"+X c #1DC4FA",
"@X c #20C1F7",
"#X c #21C0FA",
/* pixels */
"[.n 5 @.r - Z.Y ; #.i X S 2 * %.~ ; a.t - ' ^ - #.V @ ( e ; W *.q ~ 2.- N T e u l.M t n.r r %.2 2 |.3 r Y.* 3 z.p ; y.3 + K.& & ",
"..n 5 m.r O -.M 3 X.i % S @ * %.N 3 a.e O ) U - #.n < / t ; ! w.- U 2.- M a.i - | t v m.e k ` * v %.3 y /.* 5 9.e e G.t % k X s ",
"..] t B.q - e.p 3 #.T ; U.< 5 %.E e a.3 - ) k + @.n 5 / N ; ! *.e T ' - p N.a e 9.t M n.- ~ ` 3 v O.t y ^.% t -.i e ! t p _.% w ",
"..] v f.q L ;.e * a.T - T.5 M X.` t a.e p ) i X X.B 5 X.X.; ! Q p ) ` - t t.u ~ z.M M y.- U g.t v $.N S f.3 T 2.- e F.Y 3 #.- ^ ",
"6.v t j.u L W p 3 a.T - X.5 M @.N 5 a.3 p T a - X.[ 3 %.%.; 3.Q e ` 2.- M z.; T 9.M Y z.- a g.t R XXt N ' e P ) q q t.M * @.3 ~ ",
"..5 p ) - u *.Y ; ` T - X.2 t M.t 3 X.* e ` ~ - E | * X.@.3 4.Q - @.' % M V.; u 9.M Y z.O i g.e R $.* a T ; e ` L q 3.R * @.3 a ",
"..t M T q e A.Q * T T % X.2 * M.t e E 3 e g.) - R | t E @.t } Q 3 #.` + M n.3 u V.v R 4.O i :.e v v.; ~ ~ e e G.L q Q M * f.* 3 ",
"..t p u.~ q t.Y t / ~ X o.5 + m.t t X.M e e.I e R 7.R ! @.M } ] e X.' % M | t N M.t R | - L ` 3 t .X3 a ' t t S.P u @.M + /.% * ",
"{.v t f.T q t.M M #.^ - G b * / b t $.M 3 t.i p } ..Y | | M | ] v #.D % E %.y N %.5 ] | - _ ` - t v.e a j.t t v.e T a.E * E.4 + ",
" .B 5 B.T e S.M 5 ( k X C c + ( / 5 n.R 5 y.u e 7.7.t | | R 7.} 5 ( D + X.$.y D %.< M | ; k ) e v oXt t Z.M t 7.e p X.t + L.= + ",
"{ ] 5 f.E 3 S.p < U.l O G b . ~ / * $.R t y.p e 7. .3 Q E B ..] 5 S l + X.O.2 6 / 3 M R - k ' t t n.p e G.M v 7.e t %.t * L., o ",
"{ } t a.E t 4.M 3 W.l : I.A + S #.t $.R t | p 3 7. .t | ! B ..] t y d . V X.y y b 5 R M % ~ j.p e X.T t v.M M 7.t e M.5 5 E.8 > ",
" .} M a.E M 4.R t W.s : o.b < / X.M $.R M | N 5 6. .R | | M ..[ X.( P.% b X.S D S 5 R | ; U g.p M | ` p S.Y R | p t M.3 3 E.g , ",
" .] p u.Q R 4.R v U.w : o.b 5 / N t | B B $.E t ..} R | E 5 | | * * j X v %.C 4 F 5 B n.e a u.e R | ! p 9.R } | N a M.5 3 U.f 4 ",
"5.] e ` Q R 7.R v o.r - %.n < X.E 3 | R B $.B t .. .M @.E * | | + 3 j   v $.3 * / 5 n $.e P t.3 R 4.T e 9.R } 7.p N X.5 5 W.y < ",
"5.} ; ` Q Y 7.M t E w X @.n * m.X.* ..] n $.M 5 .. .5 x.E + | E t Y.H.  t %.3 S %.5 M x.t T S.e R x.Y e C.Y R S.p p T ; * %.t < ",
" .] M | ` Y 4.R R T i - n.v 2 V.E t ..] n $.E M }  .5 l.T 3 [ [ t m.N + M X.y N @.B M x.p M C.e R .XR M 7.} Y 4.Y T p 3 5 oXt 3 ",
" X{ R | T p 7.} 3.! u 3 @.B < O.E M $.J 5 $.E E | | 5 n.E 3 | [ 3 %.` @ M #.3 5 [ ] M y.Y E 9.e R ..E R } M Y C.| ` 2.u t O.v * ",
"..] M ! u q 4.R - e q y %.[ * O.R t ] v 2 %.N 5 E | 3 @.T * ..] t ` %.* t `.t t B v M n.Y | N.t M $.N T [ 5 p C.p % - - N @.~ * ",
"..B M N.a u S.R e T q e N v < M.B v v.B 5 %.b * E | 3 @.T + | ..3 p @.3 3 ].N t v.5 t a.t N N.t v %.t N V.t Y t.p e ) e t v r 3 ",
"J v 5 V.e p S.R Y Z.i e @.v 3 [ M 3 V.M 3 / 6 + #.E * ^.~ X E ! - T #.3 3 ` e e +X3 t g.e p a.3 5 V 3 a $.t R | Y N Z.; t V.t 3 ",
"..n 5 M.u u S.Q P u.q * n.v 5 $.N ; $.t 3 ( S * X.X.3 #.a - T e % k.u.- e p - p 9.t p @.t p %.3 x %.3 y n.5 Y C.M N g.- 3 M.3 3 ",
"}.n 3 %.e - 9.R p ' i - m.t * %.N ; n.t * / S 5 X.O.5 #.y u ! t X ) 2.q T P O e G.Y p E 3 e f.3 2 Q.4 * W.< 5 t.T t ` 3 5 %.; : ",
"$.v 5 %.r % 9.R q ~ i % `.v @ m.N 3 @.5 % #.S < / V < T.t e E Q e T 2.e Y W q u C.p M a.e e ].* 2 I.4 4 W.* e g.p e ! 3 ; #.4 - ",
"O.n t %.: - 9.Y ; j.i X N 3 * %.~ ; n.t * ^ l = I.S * ( r - ! ! e P j.- p ` I q t.p t B.e a ' 3 2 Q.s 4 o.3 3 g.e e u.e + y : - ",
"$.v 5 f.e - | Y q j.i % E * < %.N 3 @.; % ^ j % L.S 3 ~ y - 3.| e p ) - Y t.P q ! p p ].e a / * b o.4 f W.* ; y.t ; g.t ; ( % : ",
"..B t n.e ; 4.p q j.I ; n.3 5 $.` t y.3 - _ h X o.N 5 / N ; 3.| e T ) - p t.p p 3.M M N.- k #.3 v X.f f %.* p 9.3 3 z.M t T.% k ",
"..B M n.r u 4.t ; j.I - a.5 M X./ t n.e p ~ y + X.V 3 X.` 3 | Q e ) k.% p y.e ) t.M M y.% a (.t v %.S k #.t Y ! - e S.M 3 #.; ^ ",
"v.t t #.w i ! p q (.U X ` 5 N #.y ; f.; u ~ a * [ [ < @.#.3 3.Q ; ` ' + M V.3 p 9.M M y.% y k.e [ @.3 k / e p ! e e t.M % ' 3 D ",
"v.t t T - u 3.Y ; ' ^ % X.3 5 `.r ; ` - e ,.) - E | < @.X.e 3.! ; ` ) + M v.3 t n.t M y.% i ' e B $.- k N ; p e.L - 9.Y + E.* f ",
"6.v v ! q e S.R q T ~ % X.3 @ %.y e E e q Z.) - E | 5 [ ` t } } 3 #.) + M $.5 M V.t R | % i 2.3 t .X3 a T e p A.a - ! M + U.% ; ",
"..v t N.T - S.R Y ` ) X X.t + %.t t ! Y ; 2.I e R | R [ X.M } } 5 %./ + B ..5 N $.t R | - i 2.- v .X3 T @.M p w.p T 3.R * #.; * ",
"6.M t V.T ; 7.M v n./ + F b + ( N 5 v.M 3 j.i e | } M [ [ M {  .v n.a + | $.N N m.5 R | e U ) * v $.e N $.v p S.e N 9.R % #.r % ",
"7.B 5 n.T e S.M 5 X.a X V c + ( / 5 v.B 5 u.i q 7.6.3 E X.M {.] 5 X.D % @.$.t t %.5 R ! q a ` 3 t v.t t v.n M z.e p 9.p + S 3 - ",
"| R 5 n.) e S.p 3 #.k ; U.A + S / 3 ..] t @.a 3 7.7.* R E M  XJ t y s . [ $.y r N 3 M N - T g.p t n.I e v.B p t.e t N.t 3 '.r . ",
"] | t l.! e C.M 5 W.a ; o.m * S #.t ..] t | a ; 7. .v | E B  .} v k H.% V O.y y N t E T - T g.t t | ) p v.B M 9.e t ].t 5 E.4 * ",
"} } M l.E M 4.R 5 W.s * X.m 2 / / v ..B v @.N t 6. .Q @.E t  .../ D H.+ b X.F G S t B @.e a 9.p Y | -.P S.R R 4.N t m.5 5 G 6 9 ",
"..] t | E E 4.R v W.h & o.m 2 F M 5 ..J B v.E p 7. .n | E * ..[ + - 7 . b W.3 @ S 5 v n.e a 9.e Q } W p 7.R Q 4.N N m.3 5 I.9 1 ",
"| R 3 | E R 4.M y L.: X G c < o.T 3 ..] B $.N t ....v @.E * $.[ * S l X y o.4 1 F v M $.e N u.- R 4.I e 4.R Q C.e N X.; + L.g = ",
"..] < | E Y 4.M 5 f : % U.b 2 %.` * } ] n $.N t  . .5 n.E + ..[ t W.^ . 5 W.f C O.x v V.t T g.3 M OXT q 7.R Y S.u e p 5 < I.9 * ",
"..} B  .! Y 7.R B S s : +.n 2 %.E v .X .n $.E B  . .5 @.N 5 | R 5 #.S . b F 6 6 O.J n ..t T ! e B .XR R ..} Y 7.E X.T M 3 %.y * ",
"..] B } Y p 7.R E V s r O.H $ $.T t ] n t V.` E  .{ 3 @.N * | | 5 %.#.+ b X.3 5 B n n .XN ` z.t B ..R E R M R 7.! N T t M @.S * ",
"$.B M | p e 4.R . * - e F K < M./ e | B 2 $.N * ] { 3 X.N * @.| 5 E f.* t M.t t [ v v $.p E V.t n $.N N | 5 M S.t % e - M / S * ",
"[ n v n.p u 4.Y t ' a e V v < %./ e oXR 3 @./ * [ } 5 %.T % @.| ; p a.5 5 V.N e n.5 5 @.t p l.t x O.5 t oXt M S.p u g.e t N r 3 ",
"] v 5 oXp p S.R v %.i e O.n 3 / e 3 n.t 5 ` t * $.| 3 #.a O R Q - T u.3 5 E e e x.5 t a.u p n.5 x X.5 t M.t R 4.T T -.; M oXa r ",
"..v 3 V.e u S.Q M @.q - $.x 5 `.N 3 n.t t X.k ; | ..e #.a - Y p - 2.u.- p p O i t.t p @.e p V.3 5 %.5 t m.5 M C.p T Z.- 3 @.5 ; ",
"$.M 3 %.e - w.Q 5 E i - %.5 * (.~ * @.5 + X.( r [ $.t ^.I a Q p O ) g.e W I O q t.p M ! ; t N.3 5 `.r 3 `.3 e G.T e 2.; 3 M.5 * ",
"$.v 5 #.u - e.R 3 / u O @.n * ^.a ; @.t + #.l ; X.n * Y.y e Y ! e ) 2.- P ~ q i G.M Y 9.e u B.3 5 o.3 y #.; e t.P - ) e * %.; * ",
"$.v 5 $.e - u.Y ; (.r X N * * n.~ ; y.t % ( l * W.V * D e ; 3.w.q I u.- p t.L q 9.M t V.u y ' * x +.< f Y.* e e.u e A.e + y + : ",
"O.n 5 V.; - ` T - (.a ; ' 3 < %.N ; n.3 % ^ g + o.b < D y ; 3.*.q a ) - M z.i q ! p M N.; k ' * x +.6 y Y.* e u.L q S.p 3 ' % 4 ",
"[ K v @Xq r -.u - k.~ ; %.5 5 @./ e B.3 e ' s X ( b 2 G ~ ; 4.! u ~ -.* M z.p T 4.M M y.- l ' 5 n o.C f ).e p -.q q C.p t ^.* h ",
"O.B v m.u U -.q ; k.T % #.t n @./ t f.e T ~ r X ( F < o.' ; 3.Q e ` u.- p S.e ) 7.Y Y a.O l f.t V o.f f ).e T ` - u z.M ; @.e ^ ",
"%.5 t ` q q ` Y e u.T + X.5 M %.t e ` ; p a k - / X.@ #.' ; 4.Q ; ` ` % M G.; p 7.M M g.O i k.5 V o.* h ^ - p ! i e z.Y % X.e ~ ",
"$.3 t T q q -.Q ; E T % X.3 5 `.5 e T - e ` _ - E X.* @.' e } } 3 9.` % Y N.e p 7.M M t.- r 2.3 M %.* k S * t t.T - ! M % f.- r ",
"..t M ) i u Z.Y e T T + X.5 * `.t t ` e e j.~ - E @.t X.` t } } 3 l.` X M ` e T x.v R | - i 2.; t n.; a / e t G.p q R M % (.- - ",
"..v p g.I q A.Y Y y./ + X.t + #.N 5 y.M ; u.I u Q | | E | M ] { t n./ + ` @.t N x.t } | - I ,.- t x.e N @.M e 9.p ' @.R - ' w - ",
"..n p N.T q S.p p @./ + ` M % ( N 5 V.R ; u.p e | ..t | E B  ...t %.N + | $.a N V.< R 9.e ) ) - M x.p p #XM t v.t p n.M % Y.r % ",
" .n t y.R e S.p t n.t + E v . ( / * v.R e N.e 3 7.7.3 E | B  X] 5 #.N + $.$.e a %.5 R R ; T ` e p l.p e V.M t v.e t V.5 * / r % ",
" .] t z.R p S.M 5 `.y < %.N + ~ ' 3 ..R t N.p t 7. .3 R [ n ..B t r a + B [ t t N 5 M M ; T g.p t @.T e N.M M 7.t t x.5 t #.y + ",
" .} M z.Y p | M t ^.y * #.b 3 / #.M ..] t E N t  X .R [ | n ..| ~ D ^ + [ $.v S b t E E 3 p g.p t X.) t N.Y M | t t V.v v #.6 < ",
"{ } p N.E Y 4.R t W.4 * X.N 6 ( / t $.} M | E t ..{ B [ E 5 [ [ a k D . b %.b S F t V %.t p N.e M @.) u N.R R 4.N N M.5 5 o.y 6 ",
"} ] e @.E R | M 5 E., @ X.V * / N ; @.B B XXE v ....v @.` * O.[ . + g + y %.2 + F 2 v %.5 p a.3 R @.N t y.R R l.N a %.* 3 I.C @ ",
"..R 3 / E R | M y L., . G n @ #./ ; @.B n $.v 5 [ ..5 @./ + @.V < ( z   f I.* 6 X.x v %.5 a ` ; B $.p e | R R 9.e r #.* @ L.7 # ",
"oX| t a.X.E V.E b g z = W.V 5 `.` t @.[ [ }.F b $...M @X( * O.O.n W.J.o g !.Z G %.B n +Xp ' ^.t [ +XE M z.} } x.~ a ~ t < ~.0 0 "
};
