/* XPM */
static char *result[] = {
/* columns rows colors chars-per-pixel */
"64 64 96 2 ",
"   c #733F31",
".  c #5E4135",
"X  c #644236",
"o  c #694236",
"O  c #634539",
"+  c #6A4639",
"@  c #66493D",
"#  c #6B493D",
"$  c #744133",
"%  c #7C4536",
"&  c #754538",
"*  c #7D4738",
"=  c #724B3D",
"-  c #7C4A3C",
";  c #6C4D42",
":  c #744E41",
">  c #7B4E40",
",  c #745245",
"<  c #76554A",
"1  c #79564C",
"2  c #7C594F",
"3  c #7F5B52",
"4  c #804738",
"5  c #834B3C",
"6  c #8B4E3D",
"7  c #8F503F",
"8  c #90503F",
"9  c #834E40",
"0  c #835244",
"q  c #8E5343",
"w  c #815448",
"e  c #8F5748",
"r  c #935341",
"t  c #9B5643",
"y  c #975846",
"u  c #9E5845",
"i  c #935949",
"p  c #9D5C4B",
"a  c #815C53",
"s  c #A15945",
"d  c #A75E4A",
"f  c #AA5F4B",
"g  c #846057",
"h  c #86645C",
"j  c #8A665B",
"k  c #8E6A5F",
"l  c #9A6556",
"z  c #906A5F",
"x  c #9A6859",
"c  c #AE614C",
"v  c #B1624D",
"b  c #BD644F",
"n  c #A76350",
"m  c #A36D5E",
"M  c #B26552",
"N  c #BE6650",
"B  c #B16854",
"V  c #876962",
"C  c #8B6D66",
"Z  c #8C6F68",
"A  c #916E63",
"S  c #8E716A",
"D  c #957167",
"F  c #93746B",
"G  c #9A766D",
"H  c #96786E",
"J  c #9D786E",
"K  c #977A71",
"L  c #9D7E74",
"P  c #A36F60",
"I  c #A0796E",
"U  c #BB7A6B",
"Y  c #A37D73",
"T  c #B57E70",
"R  c #C0654F",
"E  c #C26650",
"W  c #C66851",
"Q  c #9F8077",
"!  c #9F8279",
"~  c #A28177",
"^  c #A98076",
"/  c #A2857C",
"(  c #AB857B",
")  c #A5887F",
"_  c #B38175",
"`  c #B88376",
"'  c #B3867C",
"]  c #B8867A",
"[  c #B4887F",
"{  c #C48172",
"}  c #A38B83",
"|  c #AC8C83",
" . c #AC8F88",
".. c #B48D84",
"X. c #A79089",
"o. c #A9948D",
/* pixels */
"O O . # y 8 8 8 t t t y g a a 3 # @ @ > N E W W W W W b s 8 t t # # # > n v c v t t t p ~ / / / W W W W b v v v v v v c o . . . ",
"O O O # q 8 y y t t t y a a g a @ + + > N W W W W W W R s s t t # ; ; : f v v v t t t p ~ / / / W W W W v v v v c v v s X . . . ",
"O O O + y 8 8 y t t t y a a 3 3 # @ @ > N W W W W W W b s 8 8 8 # : # > f v v v t t t p / / / / W W W E v v v v v v v c o . . . ",
". O O + q q 8 8 t t t y j h h g @ + @ - v R R R R E R b s 8 s 8 ; # ; > f c c c t t t p Q / / / b b b b v v v v c c f s o . . . ",
"@ O O O * * * 5 8 8 8 i Q Q Q Q O O O # r r r t s s s s 6 6 6 6 # # # = t u u u 8 8 8 i ! ! / / 5 5 5 6 8 s s s s s n 8 + . . . ",
"O O O + - * * - 8 7 7 i ~ / / Q O X O # 6 8 8 8 u t u 8 6 6 6 6 @ @ # # r t t t 7 7 8 i / } / / % % % 4 8 s 8 s 8 s 8 u + . . . ",
"O O O + * & * * 8 8 7 i / / / Q O O O # 6 8 8 8 t t t t 8 6 6 6 @ + @ = r t t t 7 7 7 i Q / / / % % % 4 s s 8 8 s 8 s 8 o . . . ",
"O O O O * * * * 8 8 7 i ~ / / Q O O O + 7 8 8 8 t t t t 6 6 6 6 @ # + = t t t t 7 7 7 i ! / / / % % % 4 8 s s s s s 8 8 + . . . ",
"4 4 * *         + + X X O O O O   $ $ $   $   $ 8 q r 7 7 7 7 7 $ % $ $ O O O O   &   - L ! ! / O O X + 6 8 7 7 * 4 % % X . X . ",
"*   *   o       X X   o O O O O $   $         $ 8 7 7 7 7 7 7 7 % $ % $ O O O O       & Q } } ! O O + X 6 7 7 7 % % % % X . . O ",
"  4 % %         o X o o O O O O   $ $         $ 8 7 q 7 7 7 7 7 % $ $ $ O O O O       - ! ! ! } O O O + 6 7 7 7 % % % % X . . X ",
"* * * - o       + & + + ; ; ; ; $ o & & & & & & q q q r q q q r - & - - ; ; ; ;   o   = K K ! K . O O # 0 e e 7 - 5 - - + X . O ",
": ; : ; O O O ; a j a A / ( ( ^ < , < < h V V V C C C C C V C C V V V C K L L K O @ @ @ ; ; ; ; O O . # h C k k C V V h # O O @ ",
"; : ; ; @ O O ; D A A D ......| < < < 2 C Z C C C C C C C C C C Z C Z F / / / / O ; @ @ @ . @ . O O O @ V Z Z Z Z S V V # @ O O ",
"; : ; ; O O   + A A V D ......| < < < 1 C Z C Z Z C C C C S S C Z C Z S ! / / ! @ @ @ @ . @ . . . @ O @ V Z Z V Z Z Z V # O O O ",
"; ; : ; @ O O ; j A A D  .......< < < 3 V Z Z Z C S A C C Z Z A C Z Z Z ! } / / ; @ @ @ @ . @ @ @ . @ # V Z Z Z C Z S V # O @ @ ",
"U { { { ..] ] T v M v M v v v M m P P l = + + # t u t p / / / / W W W E b v v v ................ .......B v v v 8 s n t ~ ~ ! ~ ",
"{ { { { { ..] ] v v v v v v c v P m P l # + + = u t t p ~ / / / W W W E v v v v ......................[ B c v v 8 s 8 t I ~ ~ ~ ",
"{ { { { T ..] T v M v v v v v v P m m l = o + + u t t p / / / / W W E E v v c v ..] .. .................M c c c c s 8 n ~ ! ~ ! ",
"U U U U T ] T T c c c c v v c c m m m l = + = = r t r p ~ / / / b b b b v c c c ( T T ' | ..| ( ) ( ( ( n c s n 8 8 8 n J / ~ ~ ",
"9 9 5 q d s p p u s u s u u u u u p u y 6 7 6 7 * 4 4 0 Q / / Q 5 6 5 6 r r r 8 i r i i q q q q , ; ; ; @ @ @ + 4 * - 6 J Q Q Q ",
"4 4   5 u u u u t t r u t t t t t t t t 8 8 7 7 % % * 9 Q / / / 4   % 4 6 8 8 8 q r r q 5 4 * 4 O O @ . . . . . % % * 5 G Q Q J ",
"% % 4 5 t t t t t t t t t t t t t t t t q 7 7 7 % % % 0 Q } / / % 4 % 4 6 r 6 8 6 r q 6 5 5 5 4 O . @ @ . . . . % % % - G Y Q L ",
"  %   4 t t t t t t t t t t u u t t t r 7 7 7 7 % % % 9 Q / / / % 4   4 6 8 r 8 8 6 r 6 5 5 5 5 O O O . . . . . % % * 5 G L L Q ",
"4 % % 4 8 r r 7 t t t r 4 * * 4 % % * * % % * %   $   > X.o.o.X.                * % * 4 6 8 6 8 6 r q 6 O O . X $ $ $ * F L L L ",
"4 % % 4 6 7 6 r t t s r 4 4   4 % % % % % % % %       > } o.o.X.                * % % 4 6 8 8 q 8 6 6 6 X . . O $ $ $ & F J L J ",
"4   % 4 q 7 q r u u t 8 *   4   % % % % % % % %       > } o.o.X.                * % % 4 6 r 6 q 8 8 q 6 X X . . $ $ $ - F L L J ",
"9 9 5 9 q q r r y y t t 5 9 9 5 - 5 - - 9 9 - 9 & - * w } o.o.X.  9 * >   > * > 5 - - 5 r q r q q r q q ; O @ O * & * - G Y L L ",
"Y L L K C V V C C A C C V V V V V C V C L L L L L L L Q o.o.o.o.L L L L Y L L L V V V C k C C C C V C C V V V V L L L L |  . .} ",
"Y } } L Z Z C Z C Z Z C C C C Z C C Z S / / / / / / / } o.o.o.o.} Y } / } / / / C Z C C C C C Z C Z C C Z C C Z ) / / }  . . . .",
"} Y } L Z Z Z Z C C C C Z C Z C C C C S / / / / / / / / o.o.o.o./ } / / / / / / C Z Z C C C Z C Z Z C C Z Z Z A / / / /  . . . .",
"/ } Y } Z Z Z Z Z Z Z C C Z C Z C S Z F / / / / } / / } o.o.o.o.} L / / / / } / Z C Z Z C Z C Z C C Z C C Z Z S / / / /  . . . .",
"v v v v v v v c t t t r = @ @ = W W W v = # # + O O X = c v M c t t u u f v v v O X O ; h V k z W W W W W W W W v v v v v v v v ",
"v v v v v v v c t t t y = @ @ = W W W b = @ # @ O O O # n v v c t t t s c v v v O X   O j V k z W W W W W W W W v v v v v v v v ",
"v v v v v v v c t t t r @ @ @ = W W W v = @ @ @ O O O # c v c c t t t u c v v v O X X # j k k z W W W W W W W W M v v v v v v v ",
"c c c c c c c c t t y e , , = = W R b v = + = + O O X + n c c c t t t u f f f f X X O # k A A A R b R E R R E R v c c c c c c c ",
"s s t s s s t t r 8 8 y Q Q Q P 6 7 6 6 5 5 5 5 O . O # u s u u t t s 8 r 7 8 8 X o O ; L Y / Y t r r t s s s s u u u s s t s u ",
"t t t t t t t t 7 7 7 i ( ~ ^ ^ 5 4 4 4 5 6 6 6 O O O # 8 u u t t t t t 8 6 6 6 O X X : L / } } 6 8 6 r t t t t t t t t t t t t ",
"t t t t t t t t 7 7 7 i ~ ( ( ~ 6 4 5 5 6 6 6 6 O O O # 8 u u u t t t t 8 6 6 4 O o O ; L } } Y r 8 8 8 t t t t t t t t t t t t ",
"t t t t t t y y 7 7 r i ~ ~ ( ( 4 4 4 6 5 6 6 6 O O X # t u 8 y t t s 8 6 6 6 6 O O o : L } } } 6 8 7 r t t t t t t t t t t t t ",
"* * % % % % % % $ $ $ 5 ( [ [ ) X + O # * % * % 7 e 7 7 7 7 7 7 4 % 4   O O +         , } o.o.o.* 4 4 4 6 8 8 q o + + = 4 5 5 5 ",
"% % % % % % % % $ $   % ( [ [ [ O O O O % % % * 7 7 7 7 7 7 7 7 % % 4 % O     O       : } o.o.o.  4   4 6 8 8 7 + + + + 4 5 5 4 ",
"% % % * * - % % $ $ $ - ( [ [ ) O O O X % % % % 7 7 7 7 7 7 7 7 % * %     O   O       > } o.o.o.4 4   5 8 8 q 7 o + + + 4 5 4 6 ",
"- - - 5 - 5 5 5 = - - 0 ' [ [ ) X O O + & % % % 6 6 6 7 e 7 e 7 - 5 4 5 ; O ; & * * * 1 } o.o.o.9 9 5 9 9 6 q 9 # + # # 9 9 5 5 ",
"k V V V Q Q Q Q Q Q Q ! o.o.o.) X o o X X O X O . O . @ j V A V V V V V V V V V L L L L o.o.o.o.L L Y F ; ; O + w 2 2 a V V V V ",
"Z C Z V / / / / / / ~ ) o.o.o.X.X X X o O O O O . . . @ V Z C Z Z A C C C Z Z Z / } Y } o.o.o.o./ / } L ; ; O ; a a a a C C Z A ",
"C Z V Q / / / / ) / ) ) o.o.o.) X X X X O O O O . . . @ V Z Z C Z Z C C Z Z C Z / / } } o.o.o.o./ / / K ; O   ; a a a a V Z Z Z ",
"Z C V Q / / ~ / / / / ) o.o. ./ X $ X X O O O O . . . @ V Z Z C Z C Z Z Z C Z Z / / Y } o.o.o.o./ / } K ; O ; O a a a a C Z Z Z ",
"y t t s v v v c t t t 7 + o + = ) [ ) o.[ [ ' ' ( ( ^ ~ S C Z C W W W W v v v v v v v v c v v v u u t p ^ ( ( ( q 7 q e Q / / / ",
"t t t s v v v v t r t 8 + + X = o.[ [ [ [ [ ' ' ( ( _ ~ S C Z C W W W W v v v v v v v v c v v v t t t p ^ ( ( ( q q q e ~ / / / ",
"t t t s v v v c t t r 8 $ o o = [ ) [ ) [ [ [ ' ^ ^ ( ~ V V Z A W W W W v v v v v v v v v v v v t u t p ^ ( ( ( q 7 q e Q } / / ",
"t r t t f f f n 7 r 7 7 + o o = ( ( ) ( _ _ _ ( ^ ^ ^ ~ Q S S A b b b b v v c c c c c v v v v v t t t p J ~ Q Q 7 7 6 e Q / / / ",
"* * 5 4 6 7 q 6 + @ + = 5 5 5 5 p p p p p s s n 8 y y i ! / ! Q 8 8 t t t s s u 8 u u u u u u s t t t r : # # # 4 * 4 0 L / / / ",
"% % % * 5 6 6 5 X X X + 6 6 6 6 u t u t u t t 8 7 7 8 e ! / / / 8 8 7 8 t t t t u u s 8 u u 8 s t t t r X . . . % * * > L / / / ",
"% % % * 6 6 5 5 O O X @ 9 5 5 6 t t t u u t s u 7 7 7 e ! / / / 8 8 7 8 t t t t t t u 8 8 s s 8 t t t r O . X X % % % 5 Q / / / ",
"% * % * 5 5 6 - @ O @ @ 6 6 5 6 t t t t t t s 8 7 7 7 y ! ) ) / 8 8 8 8 t t t t t u u s t u u u t t t r X X . . % % * 5 Q / / } ",
"O O O O O O O O & & & & + + + + * * % % 4 % * % $ $ & - ) o.o.X.$ $ $ $ % % % % % 4 % % % 4 % * % % % % X X . O X X X # } o.o.o.",
"O O O O O O O O & $ $ & + + + + % % % % % % % % $ $ $ - X.o.o.o.$ $ $ $ % % % % % % % % % % % % % % % % o X X O X X X ; } o.o.o.",
"O O @ @ O O O @ % % $ & + + + + * * % % % % % * $ $ $ - ) o.o.o.$ $ $ $ * * % % % % % % % % % % % % % % X X . O   . X @ } o.o.o.",
"= @ # = @ @ @ @ = = - = # = = = - - - - 5 - - - & % = < X.o.o.) % & & * - 5 - 5 - - - - - 5 - - - - - - = = # @ O @ # < } o.o.o.",
"! ! ! Q V V V V V V V V V V V V V V V k V V V C Q Q Q Q o.o.o.o.Q Q Q Q Q Q Q Q V V k V C V k C V k V C ! ! Q ! } } } } o.o.o.o.",
"/ / ! ! Z Z Z Z C C C Z C C C C C Z C C C Z C S ! / / / o.o.o.o.! / / / / / / / Z Z Z Z Z S V V C Z C S ! ! ! ! o.o.o.o.o.o.o.o.",
"/ / ! ! Z Z C Z Z C Z C C Z Z C C Z Z C C Z Z Z / / / ) o.o.o.o./ / / / / / / / Z Z Z Z C Z Z C C Z Z S ! } ! } o.o.o.o.o.o.o.o.",
"/ / / ! Z C Z Z C Z Z C Z Z C Z Z C Z Z C Z Z S ) / / ) o.o.o.o./ / / / / / / / V Z Z V C Z C Z Z C Z S ! } ! } o.o.o.o.o.o.o.o."
};
